<svg width="26" height="26" viewBox="0 0 26 26" fill="none" xmlns="http://www.w3.org/2000/svg">
<rect x="0.75" y="0.75" width="24.5" height="24.5" rx="12.25" fill="#EAE7E7"/>
<rect x="0.75" y="0.75" width="24.5" height="24.5" rx="12.25" stroke="#ADB5BD" stroke-width="0.5"/>
<path d="M15.4997 9.66659H15.508M12.1663 19.6666H8.83301C8.16997 19.6666 7.53408 19.4032 7.06524 18.9344C6.5964 18.4655 6.33301 17.8296 6.33301 17.1666V8.83325C6.33301 8.17021 6.5964 7.53433 7.06524 7.06549C7.53408 6.59664 8.16997 6.33325 8.83301 6.33325H17.1663C17.8294 6.33325 18.4653 6.59664 18.9341 7.06549C19.4029 7.53433 19.6663 8.17021 19.6663 8.83325V12.1666" stroke="#524344" stroke-linecap="round" stroke-linejoin="round"/>
<path d="M6.33301 15.4999L9.66634 12.1665C10.4397 11.4224 11.393 11.4224 12.1663 12.1665L14.6663 14.6665L15.4997 13.8332C15.758 13.5849 16.0363 13.419 16.3222 13.3365M18.3497 16.0082C18.5122 15.8457 18.7051 15.7168 18.9174 15.6288C19.1298 15.5409 19.3574 15.4956 19.5872 15.4956C19.817 15.4956 20.0446 15.5409 20.2569 15.6288C20.4692 15.7168 20.6622 15.8457 20.8247 16.0082C20.9872 16.1707 21.1161 16.3636 21.204 16.576C21.292 16.7883 21.3373 17.0159 21.3373 17.2457C21.3373 17.4755 21.292 17.7031 21.204 17.9154C21.1161 18.1278 20.9872 18.3207 20.8247 18.4832L17.9997 21.3332H15.4997V18.8332L18.3497 16.0082Z" stroke="#524344" stroke-linecap="round" stroke-linejoin="round"/>
</svg>
