<svg width="320" height="320" viewBox="0 0 320 320" fill="none" xmlns="http://www.w3.org/2000/svg">
<path fill-rule="evenodd" clip-rule="evenodd" d="M98.2404 102.272C101.648 96.4319 103.04 91.6479 96.3044 92.6719C93.4777 93.2161 90.7379 94.1419 88.1604 95.4239C85.5705 93.9519 82.8996 92.6271 80.1604 91.4559C79.0884 91.0079 76.7684 90.0479 75.8404 90.7359C73.7284 92.3359 77.2004 99.5039 78.3524 101.84C76.5897 103.263 75.0664 104.959 73.8404 106.864C71.3764 110.688 71.6164 113.024 76.1924 112.768C78.9545 112.482 81.6756 111.886 84.3044 110.992C84.5604 112.4 84.7524 114.8 85.1684 116.96C83.4884 117.36 83.0084 118.56 83.5684 120.256C83.8417 121.119 84.2582 121.931 84.8004 122.656C85.0702 122.937 85.3589 123.199 85.6645 123.44C86.0324 128.864 86.0804 128.24 85.8564 128.24C85.7636 128.227 85.669 128.237 85.5808 128.269C85.4927 128.301 85.4136 128.353 85.3505 128.423C85.2875 128.492 85.2423 128.576 85.2189 128.667C85.1956 128.758 85.1947 128.853 85.2164 128.944C85.4376 133.108 85.3788 137.283 85.0405 141.44C84.7365 144.032 84.4804 143.936 83.8404 144.112C80.4005 145.04 68.5444 144.768 64.4804 146.176C63.5776 145.069 62.7338 143.916 61.9524 142.72C62.0804 142.56 62.3044 142.336 62.5444 142.032C63.5214 140.729 64.1842 139.218 64.4811 137.616C64.7781 136.015 64.7012 134.367 64.2564 132.8C64.7737 132.264 65.1127 131.581 65.2273 130.845C65.3418 130.109 65.2263 129.356 64.8965 128.688C64.8753 128.049 64.7342 127.419 64.4804 126.832C64.6704 126.65 64.8 126.415 64.8515 126.157C64.903 125.9 64.874 125.632 64.7684 125.392C64.5231 124.906 64.18 124.475 63.7604 124.128C63.7604 123.232 63.8724 122.768 62.8644 122.256C62.9041 122.087 62.9309 121.916 62.9444 121.744C62.8349 121.196 62.5771 120.688 62.1991 120.276C61.8211 119.864 61.3373 119.564 60.8004 119.408C60.2244 119.312 60.3684 119.552 60.2084 119.104C60.1384 118.796 59.9999 118.509 59.8032 118.262C59.6065 118.015 59.3567 117.816 59.0724 117.68C58.4639 117.391 57.7736 117.323 57.1204 117.488C56.1604 116.448 54.5124 116.96 53.4244 117.904C52.9997 117.774 52.5515 117.742 52.1124 117.808C51.6208 117.998 51.2164 118.362 50.9764 118.832C50.7901 118.659 50.5652 118.533 50.3204 118.464C49.9597 118.384 49.5864 118.378 49.2233 118.446C48.8601 118.515 48.5148 118.657 48.2084 118.864C47.8329 118.658 47.3988 118.585 46.9764 118.656C46.3364 118.864 46.1604 119.424 45.9204 119.872C45.1967 120.184 44.5312 120.617 43.9524 121.152C42.5924 122.512 42.7684 124.064 43.3924 124.496C42.7479 125.05 42.2482 125.753 41.9364 126.544C41.6932 127.283 41.7274 128.085 42.0324 128.8C42.1422 128.978 42.2769 129.14 42.4324 129.28C42.0657 129.637 41.7867 130.074 41.6174 130.557C41.448 131.04 41.3929 131.556 41.4564 132.064C41.4949 132.345 41.5934 132.615 41.7452 132.855C41.897 133.096 42.0986 133.3 42.3364 133.456C42.0778 133.919 42.0001 134.462 42.1183 134.979C42.2365 135.496 42.5423 135.951 42.9764 136.256C43.2695 136.4 43.5747 136.518 43.8884 136.608C43.8858 137.02 43.918 137.433 43.9844 137.84C44.1505 138.221 44.4167 138.55 44.7547 138.793C45.0927 139.035 45.49 139.181 45.9044 139.216C45.8244 139.696 46.1284 139.904 46.5284 140.096C46.4217 140.133 46.3275 140.2 46.2564 140.288C46.0603 140.03 45.7847 139.845 45.4724 139.76C44.9018 139.683 44.3214 139.783 43.8093 140.046C43.2972 140.309 42.8781 140.723 42.6084 141.232C42.5409 141.341 42.4961 141.462 42.4768 141.588C42.4576 141.715 42.4642 141.844 42.4964 141.968C42.3281 142.095 42.1912 142.259 42.0964 142.448C41.9384 142.792 41.8566 143.166 41.8566 143.544C41.8566 143.922 41.9384 144.296 42.0964 144.64C42.2102 144.846 42.3681 145.025 42.559 145.163C42.7498 145.302 42.9689 145.396 43.2004 145.44C43.1298 145.993 43.2298 146.555 43.4872 147.049C43.7446 147.544 44.1469 147.948 44.6404 148.208C45.038 148.32 45.4589 148.32 45.8564 148.208C45.9696 148.47 46.145 148.701 46.3674 148.881C46.5898 149.06 46.8526 149.183 47.133 149.238C47.4134 149.293 47.703 149.279 47.9768 149.197C48.2506 149.115 48.5003 148.968 48.7044 148.768C48.9282 148.897 49.1821 148.965 49.4404 148.965C49.6988 148.965 49.9527 148.897 50.1764 148.768C50.4845 148.483 50.7063 148.117 50.8164 147.712C51.0244 147.712 50.9604 147.456 50.2724 149.952C50.2118 150.168 50.1637 150.387 50.1284 150.608C48.8501 151.028 47.6257 151.597 46.4804 152.304C42.4291 154.591 38.8895 157.684 36.0804 161.392C29.2644 169.552 19.1524 197.424 16.7524 200.448C16.4164 200.88 16.8644 201.424 17.2164 201.84C16.8964 202.128 16.1124 202.8 15.4244 203.44C13.1276 204.149 10.8823 205.015 8.70444 206.032C7.21644 206.976 8.28844 208.88 10.0644 208.704C9.92624 208.947 9.86295 209.226 9.8825 209.506C9.90205 209.785 10.0036 210.053 10.1743 210.275C10.3451 210.497 10.5776 210.663 10.8426 210.754C11.1077 210.845 11.3935 210.855 11.6644 210.784C11.5498 211.017 11.5107 211.28 11.5524 211.536C11.5842 211.711 11.6518 211.878 11.751 212.026C11.8502 212.175 11.979 212.301 12.1291 212.397C12.2793 212.493 12.4477 212.557 12.6238 212.585C12.7999 212.613 12.9798 212.605 13.1524 212.56C14.6966 211.802 16.0522 210.708 17.1204 209.36C17.7764 209.808 18.3844 210.704 19.0884 211.088C20.1764 211.68 21.1524 210.928 20.6884 209.488C20.4569 208.818 20.1453 208.179 19.7604 207.584L21.8564 206.368C22.4324 206.784 22.7204 207.008 23.3764 206.736C25.1204 205.968 29.7764 201.088 31.4564 199.472C36.9284 194.032 43.1844 182.352 46.5924 175.472C45.9364 180.848 44.6884 184.848 44.6084 190.432C44.6084 191.136 45.2644 191.472 45.9364 191.648C45.206 193.035 44.6677 194.515 44.3364 196.048C39.2324 209.104 37.0564 228.048 35.6164 241.04C33.3924 261.28 31.6964 284.096 31.5524 288.032C31.5524 289.072 31.5524 289.184 34.4004 289.632C34.2884 290.64 33.1844 299.968 33.7764 300.832C33.8547 300.941 33.9675 301.02 34.0964 301.056C35.0419 301.263 35.998 301.417 36.9604 301.52C38.0644 301.616 38.0484 301.52 39.1044 299.728C42.735 300.79 46.4273 301.629 50.1604 302.24C50.2929 302.25 50.4261 302.235 50.5524 302.193C50.6787 302.152 50.7956 302.086 50.8964 302C53.1524 299.744 47.2644 296.768 44.3684 295.472C44.3684 293.248 44.6084 292.064 44.7204 290.56C45.4184 290.606 46.1185 290.606 46.8164 290.56C47.0069 290.567 47.1966 290.534 47.3732 290.462C47.5497 290.39 47.709 290.282 47.8404 290.144C48.0964 289.744 49.6964 285.072 51.6484 279.2C59.8724 254.272 57.0084 264.8 66.9604 221.04C68.0484 216.24 68.8324 212.608 68.9604 211.152C68.9508 211.114 68.9499 211.075 68.9578 211.036C68.9657 210.998 68.9823 210.962 69.0062 210.931C69.0302 210.901 69.0608 210.876 69.0959 210.858C69.1309 210.841 69.1694 210.832 69.2084 210.832C69.2475 210.832 69.286 210.841 69.321 210.858C69.3561 210.876 69.3867 210.901 69.4107 210.931C69.4346 210.962 69.4512 210.998 69.4591 211.036C69.467 211.075 69.4661 211.114 69.4564 211.152C69.2644 218.832 60.5764 254.144 58.7204 261.536V287.92C58.7398 288.09 58.8203 288.247 58.9469 288.361C59.0735 288.476 59.2376 288.541 59.4084 288.544L63.1684 288.416C62.9945 292.175 63.0265 295.94 63.2644 299.696C63.2644 300.208 63.4084 300.72 63.9204 300.8C65.1633 300.96 66.4216 300.96 67.6644 300.8C68.3204 300.528 68.2084 299.568 68.2884 298.96C70.9604 299.536 76.5764 300.848 79.3285 300.48C80.1925 300.368 81.0724 300 81.2164 299.136C81.5844 296.928 75.5685 294.816 73.4405 294.112C73.5364 292.4 73.6645 289.648 73.7284 287.904C74.207 287.882 74.6831 287.824 75.1525 287.728C75.2678 287.714 75.3778 287.671 75.4727 287.604C75.5676 287.537 75.6445 287.448 75.6964 287.344C76.7365 285.296 87.6164 209.792 80.1124 190.464C80.8484 189.744 80.8644 189.04 80.8964 187.6C80.98 187.497 81.0401 187.377 81.0724 187.248C81.3924 185.952 81.7924 163.696 81.8724 162.048C82.7524 161.392 89.9844 159.248 93.7444 156.192C100.144 150.928 97.2484 136.368 94.4004 128.528C94.362 128.411 94.2865 128.311 94.1853 128.241C94.0841 128.172 93.963 128.138 93.8404 128.144H93.5364C92.9924 124.272 93.0084 126.544 93.9684 123.344C94.1397 123.25 94.2906 123.124 94.4124 122.971C94.5343 122.819 94.6246 122.644 94.6782 122.456C94.7318 122.269 94.7476 122.072 94.7246 121.879C94.7017 121.685 94.6404 121.498 94.5444 121.328C96.2724 121.072 96.3684 118.4 92.9445 117.232C92.3204 117.024 92.7684 117.776 95.2164 111.808C98.0804 111.808 105.008 111.808 107.472 110.304C108.448 109.712 108.88 108.8 108.16 107.824C106.864 105.6 100.528 103.136 98.2404 102.272ZM85.2164 144.464C86.6724 142.608 86.4004 131.664 86.3044 129.312H88.4484C88.4484 135.712 88.8964 142.672 88.1764 144.8C87.1684 146.048 78.9924 149.6 77.1364 150.752C77.0404 150.432 76.9604 150.144 76.8804 149.84C76.8599 149.784 76.8206 149.737 76.7694 149.707C76.7182 149.678 76.6581 149.666 76.5995 149.676C76.541 149.685 76.4875 149.715 76.4482 149.759C76.409 149.804 76.3865 149.861 76.3845 149.92C76.4603 151.297 76.6966 152.661 77.0884 153.984C76.4484 160.288 77.4244 173.184 77.9364 179.984C77.0538 179.985 76.1952 180.271 75.4884 180.8C73.8885 160 72.2884 148.08 72.7684 146.048C77.6644 145.696 84.2884 145.6 85.2164 144.464ZM91.7444 129.136C91.8885 130.736 92.7044 145.888 91.3924 147.136C90.2857 148.072 89.0783 148.882 87.7924 149.552C84.7494 151.279 81.614 152.839 78.4004 154.224C77.9684 153.152 77.5844 152.096 77.2645 151.12C77.4244 151.12 88.6244 147.136 89.3124 145.136C90.4964 141.648 89.0244 130.096 88.9445 129.216L91.7444 129.136ZM80.7364 161.488C80.7364 161.984 80.4324 174.208 80.2404 180.848C79.9431 180.411 79.4917 180.102 78.9764 179.984C78.7684 175.568 77.6964 156.864 77.6484 155.648C78.3768 157.739 79.418 159.708 80.7364 161.488ZM51.1044 167.728C50.497 165.267 49.5606 162.899 48.3204 160.688C46.9452 158.482 45.0983 156.607 42.9124 155.2C43.9152 154.385 44.9858 153.657 46.1124 153.024C47.9699 154.958 49.5528 157.139 50.8164 159.504C53.9829 165.483 55.7861 172.089 56.0964 178.848C56.4225 182.411 56.54 185.991 56.4484 189.568L50.6404 190.288C51.7764 183.344 52.9604 174.864 51.1044 167.728ZM59.8884 165.904C59.4724 164.544 59.2804 164.72 60.9604 166.832C61.7604 167.856 63.4084 169.888 64.7044 170.032C64.7844 170.56 67.1684 186.16 67.4564 188.208C67.2964 188.208 67.5524 188.208 62.5604 188.832C63.4404 182.096 61.6964 171.968 59.8884 165.904ZM71.3124 185.2C70.6857 186.061 70.119 186.965 69.6164 187.904C66.4164 187.392 69.2005 190.816 67.3284 178.624C66.9179 175.663 66.2432 172.745 65.3124 169.904C65.5826 169.731 65.777 169.462 65.8564 169.152C66.7044 166.224 65.0884 149.952 64.7524 146.96C65.8291 146.649 66.9326 146.44 68.0484 146.336C67.0244 154.576 70.1284 176.944 71.3124 185.2ZM70.8804 192.704C70.3288 193.184 69.6125 193.433 68.8818 193.397C68.1511 193.361 67.4625 193.044 66.9604 192.512C66.7029 192.013 66.6022 191.448 66.6716 190.891C66.741 190.334 66.9772 189.811 67.3492 189.39C67.7213 188.97 68.2117 188.671 68.7562 188.535C69.3008 188.398 69.8739 188.429 70.4004 188.624C71.2804 188.96 71.8244 191.776 70.8804 192.704ZM46.8804 191.232C53.2373 191.175 59.5828 190.684 65.8724 189.76C65.5795 190.352 65.4558 191.013 65.5151 191.671C65.5744 192.329 65.8143 192.958 66.2084 193.488C61.0884 194.176 47.9524 195.264 45.2964 195.376C45.6727 193.95 46.1816 192.563 46.8164 191.232H46.8804ZM61.8084 200.976C68.1124 193.824 66.7844 194.576 67.8884 194.576C68.6228 194.768 69.3941 194.768 70.1284 194.576C69.0512 197.544 67.524 200.328 65.6004 202.832C64.5284 204.288 62.4964 206.752 60.8004 207.28C60.1924 206.944 58.4964 205.952 57.6004 205.36C58.5284 204.528 60.0804 202.848 61.7444 200.976H61.8084ZM70.3204 188.064C71.2484 186.64 75.3764 181.664 77.1044 181.264C77.4546 181.133 77.8313 181.09 78.202 181.137C78.5728 181.184 78.9264 181.321 79.2324 181.536C79.2607 181.839 79.2224 182.145 79.1204 182.432C78.0184 183.901 76.6961 185.191 75.2004 186.256C73.9996 187.178 72.7835 188.079 71.5524 188.96C71.4091 188.73 71.2201 188.532 70.9972 188.378C70.7743 188.224 70.5222 188.117 70.2564 188.064H70.3204ZM79.7284 184.304C79.8728 185.81 79.8728 187.326 79.7284 188.832C79.4565 190.224 73.8404 191.808 72.4484 192.128C72.5444 191.267 72.3946 190.396 72.0164 189.616C74.0048 188.506 75.9039 187.244 77.6964 185.84C80.0005 183.824 79.6004 183.184 79.6645 184.304H79.7284ZM72.2404 146C71.0084 151.152 73.8404 175.568 74.6564 181.392C73.6894 182.285 72.8008 183.259 72.0004 184.304C71.2804 174.928 68.2724 151.184 68.6084 146.288C69.7444 146.16 71.0724 146.08 72.2404 146ZM63.6004 128.56C63.8078 129.07 63.9321 129.61 63.9684 130.16C64.1284 131.76 63.4404 132.352 62.2724 132.32C61.9767 132.333 61.6828 132.269 61.4192 132.134C61.1556 132 60.9314 131.799 60.7684 131.552C60.3369 130.849 59.9777 130.104 59.6964 129.328C60.9223 128.778 62.2576 128.515 63.6004 128.56ZM52.2244 128.88C52.9444 128.88 53.4244 128.88 53.8244 127.6C53.9753 127.13 54.0244 126.634 53.9684 126.144C54.6564 126.144 54.8964 125.728 55.2004 125.184C56.0964 125.84 56.4964 126.928 58.1124 126.304C58.2009 126.566 58.3423 126.807 58.528 127.013C58.7137 127.218 58.9397 127.383 59.1919 127.497C59.4441 127.611 59.717 127.672 59.9938 127.676C60.2705 127.68 60.5451 127.627 60.8004 127.52C61.2484 127.392 61.0564 127.376 61.3604 127.824C60.8004 128 59.2004 128.64 59.2004 129.152C59.1705 129.454 59.2032 129.759 59.2964 130.048C58.5652 129.957 57.8248 130.12 57.2004 130.512C57.0084 129.936 56.6244 129.344 56.0324 129.312C54.6217 129.382 53.2323 129.684 51.9204 130.208C52.1716 129.813 52.2789 129.344 52.2244 128.88ZM50.3684 131.616C52.1334 130.917 54.007 130.533 55.9044 130.48C56.1758 131.221 56.2743 132.015 56.1924 132.8C56.0004 133.712 55.6964 134.4 54.8004 134.608C54.2133 134.829 53.5742 134.872 52.9626 134.733C52.351 134.593 51.7939 134.277 51.3604 133.824C50.8957 133.156 50.5593 132.407 50.3684 131.616ZM50.8964 139.856C51.1204 139.168 50.8964 138.8 49.8884 138.48C47.5524 137.76 47.6964 135.936 48.4804 135.52C49.5844 134.944 48.9284 134.512 48.7044 134.4C49.5844 133.968 49.8884 133.712 50.0324 132.8C50.1662 133.364 50.3876 133.904 50.6884 134.4C51.1763 135.077 51.8697 135.578 52.6655 135.829C53.4612 136.079 54.3166 136.067 55.1044 135.792C56.9924 135.312 57.6324 133.472 57.4084 131.504C58.5284 131.504 57.7444 131.04 58.3684 132.896C58.6134 133.619 58.9184 134.32 59.2804 134.992C58.9284 135.216 58.6244 135.248 58.7044 135.536C58.7294 135.597 58.7756 135.646 58.8344 135.676C58.8933 135.705 58.9608 135.712 59.0244 135.696C60.2084 135.696 60.8004 135.552 59.8244 133.216C59.5535 132.507 59.1758 131.843 58.7044 131.248C58.9992 131.155 59.2834 131.032 59.5524 130.88C59.9044 131.952 60.0964 132.64 61.1524 133.152C61.5387 133.32 61.9553 133.406 62.3764 133.406C62.7976 133.406 63.2142 133.32 63.6004 133.152C63.9632 134.653 63.9515 136.22 63.5665 137.715C63.1815 139.211 62.4349 140.589 61.3924 141.728C60.6084 142.576 60.3524 142.448 63.6004 146.72C63.6004 146.72 65.3604 164.32 64.8004 168.256C64.8004 168.336 64.7044 168.336 64.5924 168.256C63.044 166.873 61.6542 165.322 60.4484 163.632C56.4964 158.496 53.2004 152.432 51.3924 150.384C51.5364 149.76 52.2244 147.504 52.4964 146.528C52.7025 146.52 52.9035 146.462 53.082 146.359C53.2604 146.256 53.411 146.111 53.5204 145.936C53.8537 145.469 54.0327 144.91 54.0324 144.336C53.8892 143.845 53.5777 143.42 53.1524 143.136C54.0004 142.464 52.7204 140.464 51.6484 140.656C51.4724 140.656 51.6484 140.752 51.5364 140.464C51.5124 140.306 51.4364 140.16 51.3206 140.05C51.2047 139.94 51.0555 139.872 50.8964 139.856ZM50.2084 151.056C50.2318 151.095 50.2648 151.129 50.3044 151.152C51.4404 152.304 54.5924 157.552 57.7124 162.352C60.2666 170.948 61.7077 179.837 62.0004 188.8L57.0084 189.408C58.3684 176.128 56.4324 161.808 46.5924 152.608C47.7357 151.944 48.9482 151.407 50.2084 151.008V151.056ZM19.2004 206.96C19.1511 206.986 19.1077 207.023 19.0733 207.067C19.0389 207.111 19.014 207.162 19.0005 207.216C18.9869 207.27 18.9849 207.327 18.9945 207.382C19.0042 207.437 19.0253 207.489 19.0564 207.536C19.5338 208.246 19.8755 209.038 20.0644 209.872V210.128C20.0644 210.192 18.4644 208.672 18.2404 208.528C17.6964 208.16 17.0884 207.808 16.6404 208.272C15.7764 209.104 14.0484 210.992 12.9604 211.184C11.8724 211.376 13.1364 210.848 13.3124 210.64C13.8244 209.984 14.6244 209.216 15.0244 208.8C15.1382 208.689 15.245 208.572 15.3444 208.448C15.4113 208.353 15.451 208.241 15.4593 208.125C15.4676 208.01 15.4441 207.894 15.3915 207.79C15.3389 207.686 15.259 207.599 15.1605 207.537C15.0621 207.476 14.9486 207.442 14.8324 207.44C14.5975 207.461 14.3771 207.563 14.2084 207.728C13.4194 208.436 12.5229 209.014 11.5524 209.44C11.0084 209.536 10.9924 208.816 13.2644 207.52C13.4015 207.452 13.535 207.377 13.6644 207.296C13.7421 207.248 13.8078 207.183 13.8569 207.106C13.9059 207.029 13.937 206.942 13.9477 206.851C13.9585 206.76 13.9487 206.668 13.919 206.582C13.8894 206.495 13.8406 206.417 13.7764 206.352C12.9444 205.536 10.5764 207.856 9.52044 207.312C8.46444 206.768 10.9764 206.208 12.1284 205.472C13.3389 204.866 14.5837 204.332 15.8564 203.872C16.4827 203.372 17.0809 202.838 17.6484 202.272C17.7604 202.176 17.6484 202.16 17.8404 202.272C19.0065 203.529 20.2574 204.706 21.5844 205.792L19.2004 206.96ZM46.5604 167.584C44.5646 169.688 42.8294 172.025 41.3924 174.544C40.8164 175.488 28.4324 196.944 27.4404 198.544C25.9554 200.929 24.2693 203.182 22.4004 205.28C21.9335 204.936 21.4849 204.567 21.0564 204.176C30.4164 190.512 40.1124 167.376 45.0564 163.36C45.6728 164.718 46.1551 166.132 46.4964 167.584H46.5604ZM38.2724 188.496C35.0384 194.03 30.9199 198.997 26.0804 203.2C25.1675 204.131 24.1407 204.942 23.0244 205.616L22.8964 205.536C31.8244 196.8 42.5604 172.64 46.6244 168.208C46.8324 169.36 46.9924 170.512 47.1364 171.728C44.4455 177.464 41.4657 183.061 38.2084 188.496H38.2724ZM48.2724 172.624C48.5834 168.458 47.2897 164.331 44.6564 161.088C44.6354 161.064 44.6096 161.045 44.5806 161.032C44.5516 161.019 44.5202 161.012 44.4884 161.012C44.4567 161.012 44.4252 161.019 44.3963 161.032C44.3673 161.045 44.3415 161.064 44.3204 161.088C44.0484 161.264 44.3204 161.344 45.0084 162.976C40.3524 164.576 25.4884 196.352 20.8004 203.904C20.2998 203.456 19.8142 202.992 19.3444 202.512C21.6484 199.312 34.9924 171.408 36.9444 167.888C38.0164 165.92 40.5444 161.376 42.4164 160.144C42.6884 159.984 42.4164 159.552 42.1444 159.728C35.5364 163.552 23.2964 193.6 18.9124 202.08C18.1764 201.312 18.2884 201.392 17.6964 200.752C20.4324 196.656 30.1284 169.6 36.5924 161.712C38.3695 159.469 40.3514 157.396 42.5124 155.52C45.1185 157.418 47.1191 160.029 48.2724 163.04C50.9764 169.44 51.0404 174.704 50.7204 182.048C50.5444 186.48 50.1764 189.744 50.1284 190.336C48.7528 190.679 47.3067 190.613 45.9684 190.144C46.0804 183.872 47.7604 179.296 48.2084 172.624H48.2724ZM43.6164 294.48C40.7259 294.802 37.8022 294.651 34.9604 294.032C34.9604 292.816 35.0884 290.832 35.1684 289.52C37.7924 289.856 41.5684 290.192 44.2564 290.288L43.6164 294.48ZM72.6884 293.296C70.9284 293.728 65.6164 294.464 64.1604 293.536C64.0804 291.936 63.9684 289.712 63.9044 288.144C66.9604 288.032 70.8804 287.872 73.2484 287.696C73.0244 289.392 72.7684 291.968 72.6244 293.296H72.6884ZM93.0405 154.976C89.5364 157.824 82.4964 159.936 81.3604 160.704C81.0084 160 80.6244 159.2 80.2244 158.352C83.3556 157.617 86.3668 156.443 89.1684 154.864C93.4404 152.496 95.7124 150.72 96.4804 145.376C96.4324 149.264 95.6004 152.896 93.0405 154.976ZM96.0005 139.552C95.2004 149.152 94.1124 150.56 88.5285 153.824C85.8139 155.433 82.9597 156.793 80.0005 157.888C79.5364 156.864 79.0564 155.792 78.6244 154.688C81.8244 153.664 89.6324 150.432 92.2404 147.984C94.4324 145.904 92.8165 132.304 92.2404 129.072H93.5044C94.6386 132.486 95.4738 135.993 96.0005 139.552ZM86.6724 128.16V124.096C86.9284 123.968 86.6724 123.696 86.6724 123.616C86.2473 123.163 85.8467 122.688 85.4724 122.192C84.8786 121.118 84.6012 119.897 84.6724 118.672C85.0084 117.872 87.2164 118 88.1604 118.256C88.2722 118.309 88.3666 118.393 88.4327 118.498C88.4988 118.603 88.5338 118.724 88.5338 118.848C88.5338 118.972 88.4988 119.093 88.4327 119.198C88.3666 119.303 88.2722 119.387 88.1604 119.44C87.1844 120.016 86.4804 120.192 86.9124 120.88C87.1204 121.232 87.7924 122.112 87.8724 122.352C87.8906 122.401 87.9234 122.443 87.9663 122.473C88.0092 122.503 88.0602 122.519 88.1124 122.519C88.1647 122.519 88.2157 122.503 88.2586 122.473C88.3015 122.443 88.3343 122.401 88.3524 122.352C88.3285 122.22 88.2909 122.092 88.2404 121.968C88.6168 121.956 88.9824 121.84 89.2964 121.632C89.7311 122.141 90.2674 122.553 90.8708 122.842C91.4743 123.132 92.1315 123.292 92.8004 123.312C92.0484 126.096 91.9684 124.304 92.8004 127.92L86.6724 128.16ZM94.2085 122.208C93.9364 122.8 92.8804 122.4 92.2724 122.208C89.1844 120.944 90.1284 120.08 92.5924 120.848C93.3284 121.024 94.4005 121.456 94.2085 122.208ZM93.7444 118.544C94.4484 118.864 95.4404 119.44 95.1684 120.144C94.8964 120.848 93.8244 120.144 93.2645 119.84C90.3684 118.192 91.3924 117.44 93.7444 118.544ZM107.488 108.576C107.488 108.864 106.96 109.136 106.704 109.264C104.256 110.416 97.6804 110.608 95.0244 110.544C94.2244 110.544 94.6244 111.616 91.8244 116.784C91.6089 116.759 91.3905 116.788 91.1892 116.869C90.988 116.95 90.8103 117.08 90.6724 117.248C90.4606 117.506 90.3257 117.818 90.2832 118.149C90.2408 118.48 90.2925 118.817 90.4324 119.12L90.2884 119.328C89.9701 119.373 89.678 119.53 89.4642 119.77C89.2504 120.01 89.1286 120.318 89.1204 120.64C88.7044 120.992 88.2885 121.232 87.8084 121.024L87.6645 120.72C87.9684 120.592 88.4165 120.432 88.7205 120.288C89.0223 120.124 89.2691 119.875 89.4299 119.571C89.5906 119.268 89.6581 118.923 89.6239 118.582C89.5897 118.24 89.4554 117.916 89.2377 117.65C89.0201 117.384 88.7288 117.189 88.4004 117.088C87.5681 116.856 86.7003 116.78 85.8404 116.864C84.8644 112.432 85.0564 110.224 84.4324 110.464C82.2404 111.184 74.2244 113.296 73.2324 111.28C72.7684 110.368 74.0644 108.24 74.6404 107.392C75.8921 105.451 77.4924 103.758 79.3604 102.4C79.4688 102.331 79.5482 102.224 79.5835 102.1C79.6189 101.976 79.6078 101.844 79.5525 101.728C78.5444 99.7119 76.3524 94.7199 76.3524 92.4319C76.3524 92.0799 76.3524 91.7919 76.5604 91.6479C78.0817 91.8521 79.555 92.3234 80.9124 93.0399C87.4244 95.9999 87.7444 97.0239 88.4484 96.6239C91.4172 95.0159 94.6848 94.0356 98.0484 93.7439C99.6484 93.7439 99.7924 94.3519 99.7604 95.1039C99.2124 97.6473 98.1862 100.063 96.7364 102.224C96.6882 102.303 96.6581 102.391 96.6484 102.483C96.6387 102.575 96.6495 102.668 96.6801 102.756C96.7108 102.843 96.7604 102.922 96.8255 102.988C96.8906 103.054 96.9695 103.104 97.0564 103.136C99.4084 103.984 104.928 106.192 106.848 107.84C107.04 107.984 107.504 108.416 107.488 108.576Z" fill="#362D2E"/>
<path fill-rule="evenodd" clip-rule="evenodd" d="M53.792 132.8C53.8542 132.93 53.9606 133.034 54.0923 133.093C54.224 133.151 54.3722 133.162 54.5107 133.121C54.6491 133.081 54.7687 132.993 54.8481 132.872C54.9274 132.752 54.9614 132.607 54.944 132.464C54.8973 132.295 54.8599 132.124 54.832 131.952C54.8023 131.797 54.7122 131.66 54.5817 131.572C54.4512 131.483 54.2908 131.45 54.136 131.48C53.9811 131.51 53.8443 131.6 53.7558 131.73C53.6673 131.861 53.6343 132.021 53.664 132.176C53.696 132.4 53.744 132.592 53.792 132.8ZM61.168 130.8C61.2338 130.935 61.3475 131.042 61.4872 131.098C61.6269 131.154 61.7825 131.157 61.9239 131.105C62.0653 131.053 62.1825 130.951 62.2527 130.818C62.3229 130.684 62.3412 130.53 62.304 130.384C62.231 130.211 62.1669 130.035 62.112 129.856C62.0497 129.726 61.9433 129.622 61.8116 129.563C61.68 129.504 61.5317 129.494 61.3933 129.535C61.2548 129.575 61.1352 129.663 61.0559 129.784C60.9765 129.904 60.9425 130.049 60.96 130.192L61.168 130.8ZM57.744 138.704C57.9103 138.925 58.1194 139.111 58.3589 139.25C58.5983 139.388 58.8633 139.478 59.138 139.512C59.4126 139.546 59.6914 139.525 59.9577 139.449C60.224 139.374 60.4723 139.245 60.688 139.072C60.7174 139.058 60.7438 139.039 60.7658 139.015C60.7877 138.991 60.8048 138.963 60.8159 138.933C60.827 138.902 60.8321 138.87 60.8307 138.838C60.8294 138.805 60.8216 138.773 60.808 138.744C60.7943 138.714 60.775 138.688 60.7511 138.666C60.7272 138.644 60.6993 138.627 60.6688 138.616C60.6384 138.605 60.606 138.6 60.5736 138.601C60.5412 138.603 60.5094 138.61 60.48 138.624C60.132 138.684 59.774 138.644 59.4481 138.508C59.1222 138.372 58.8418 138.146 58.64 137.856C59.277 137.686 59.898 137.461 60.496 137.184C61.248 136.88 60.928 136.592 60.496 136.576C59.5166 136.488 58.5297 136.608 57.6 136.928C56.816 137.28 57.232 138.144 57.744 138.704ZM215.36 82.8159C215.314 82.533 215.166 82.2767 214.944 82.0959C215.584 81.6959 216.272 81.1359 216.032 80.4159C215.947 80.1549 215.789 79.9239 215.576 79.7508C215.363 79.5776 215.105 79.4697 214.832 79.4399C215.041 79.2639 215.196 79.032 215.278 78.7713C215.36 78.5107 215.366 78.232 215.296 77.9679C214.288 75.4399 210.8 77.6159 208.544 79.1359C208.272 79.3119 208.448 79.2479 208.544 78.6559C208.643 78.2294 208.61 77.7828 208.448 77.3759C208.331 77.1656 208.173 76.9809 207.983 76.8325C207.794 76.6842 207.576 76.5752 207.344 76.5119C207.09 76.4721 206.83 76.5033 206.593 76.6022C206.356 76.701 206.15 76.8636 206 77.0719C205.76 77.3599 204.672 79.7439 204.496 80.0959C201.936 82.1119 197.472 85.6799 194.896 87.7919C194.496 87.3119 193.84 86.5439 193.296 86.4799C191.615 86.4866 189.984 87.0492 188.656 88.0799C187.888 88.8479 188.144 89.3119 188.656 90.1919C180.464 94.0639 167.552 102.608 159.968 104.592C159.488 104.208 159.008 103.872 158.768 103.696C159.041 101.707 159.191 99.7032 159.216 97.6959C161.152 96.7679 163.392 95.3439 162.88 93.2319C163.672 92.3343 164.272 91.2832 164.64 90.1439C165.557 88.0679 166.026 85.8216 166.016 83.5519C166.079 83.0271 166.033 82.4949 165.882 81.9885C165.73 81.482 165.477 81.0121 165.136 80.6079C164.58 80.0483 163.902 79.6255 163.156 79.3728C162.409 79.1201 161.613 79.0445 160.832 79.1519C160.048 78.6399 159.872 77.4399 158.464 76.8159C156.991 76.1689 155.339 76.0557 153.792 76.4959C153.723 76.4432 153.658 76.3843 153.6 76.3199C153.57 75.9822 153.5 75.6493 153.392 75.3279C152.56 72.8479 147.28 71.4239 144.688 74.5119C143.817 75.616 143.31 76.9636 143.239 78.3682C143.167 79.7727 143.534 81.1648 144.288 82.3519C142.487 84.842 141.128 87.6241 140.272 90.5759C139.328 94.3999 139.92 98.5759 143.472 100.336C144.458 100.664 145.469 100.91 146.496 101.072L145.472 104.272C144.342 104.178 143.231 103.919 142.176 103.504C137.904 100.816 131.664 90.0639 129.232 85.6479C129.413 85.542 129.554 85.3787 129.632 85.1839C129.984 84.1439 129.712 78.9919 128.128 78.7839C127.64 78.7168 127.144 78.7168 126.656 78.7839C125.056 74.2879 122.944 66.7039 122.16 63.5039C123.296 62.4478 124.277 61.2357 125.072 59.9039C125.664 58.5919 124.88 57.5679 123.472 58.0959C122.63 58.4764 121.812 58.9092 121.024 59.3919C120.208 56.5439 119.424 55.3919 118.256 55.4719C117.408 55.4719 117.136 56.4319 117.072 57.2799C116.528 56.6079 115.792 56.1759 115.056 56.6239C114.32 57.0719 114.432 57.8719 114.448 58.3199C114.129 57.9354 113.73 57.6243 113.28 57.4079C112.847 57.2205 112.368 57.1648 111.904 57.2479C111.581 57.3769 111.32 57.6246 111.175 57.94C111.029 58.2553 111.009 58.6146 111.12 58.9439C111.497 60.0746 112.095 61.1189 112.88 62.0159C115.2 64.8479 114.88 63.8719 115.2 65.0879C115.872 67.9679 117.504 76.6559 118.272 81.7919C117.84 82.0159 116.528 82.7199 116.4 83.1999C116.236 85.1439 116.683 87.0907 117.68 88.7679C117.936 89.0879 118.48 89.0879 118.896 89.0719C119.984 95.0399 123.552 113.424 123.6 116.032C123.6 121.072 118.704 138.576 119.616 154.08C119.088 155.056 119.456 159.312 120.864 158.768C121.2 158.64 117.76 167.952 117.984 212.192C117.984 218.848 118.704 260.112 120.816 265.856C120.96 266.24 121.184 266.624 121.616 266.656C122.048 266.688 123.008 266.816 123.968 266.96C123.68 269.36 123.616 269.216 123.104 269.552C121.232 270.784 115.568 272.16 116.912 274.88C117.005 275.04 117.129 275.179 117.278 275.289C117.427 275.399 117.596 275.478 117.776 275.52C119.696 276.128 126 275.296 127.632 274.88C128.592 274.64 131.184 274.88 131.68 273.92C132.158 272.683 132.36 271.356 132.272 270.032C132.272 269.918 132.239 269.807 132.176 269.712C132.176 269.216 132.176 268.72 132.064 268.224C133.177 268.445 134.33 268.351 135.392 267.952C137.28 266.544 143.936 218.56 144.704 213.104C142.344 202.745 141.036 192.174 140.8 181.552C140.814 181.497 140.846 181.448 140.891 181.413C140.936 181.378 140.991 181.359 141.048 181.359C141.105 181.359 141.16 181.378 141.205 181.413C141.25 181.448 141.282 181.497 141.296 181.552C141.296 183.792 144.688 210.64 145.776 213.344C154.192 234.032 166.576 266.304 168.432 267.2C169.765 267.715 171.206 267.891 172.624 267.712C172.976 269.632 173.584 272.112 174.112 273.872C174.56 275.344 184.784 282.432 189.328 279.712C192.08 278.112 185.776 272.576 183.296 270.512C182.624 269.936 183.072 271.312 182.88 267.024V265.824C184.16 265.472 186.272 264.832 186.08 263.552C184.832 252.704 174.256 226.336 171.264 209.936C168.176 193.12 163.088 164.16 162.24 159.28C163.536 158.64 163.456 155.04 162.24 153.536C163.328 146.864 166.672 128.208 169.984 122.368C171.584 119.648 188.816 106.144 195.824 99.9679C196.083 100.215 196.387 100.411 196.72 100.544C196.96 100.544 197.104 100.544 197.36 100.352C198.064 99.8559 200.816 97.6799 200.752 96.8159C200.435 95.9508 200.022 95.1242 199.52 94.3519C208.112 85.9839 205.744 87.3919 208.112 86.6559C210.48 85.9199 215.856 85.1359 215.36 82.8159ZM182.192 265.984V267.04C182.192 270.448 181.84 270.576 182.192 270.864C180.592 272.096 179.12 271.808 173.808 269.536C173.664 269.024 173.456 268.272 173.296 267.664C175.056 267.472 180.8 266.352 182.192 265.984ZM147.984 109.264C151.638 107.875 155.179 106.206 158.576 104.272C159.347 104.845 160.018 105.543 160.56 106.336C156.887 108.684 153.084 110.821 149.168 112.736C148.643 111.627 148.245 110.462 147.984 109.264ZM144.096 99.1999C143.4 98.8654 142.791 98.373 142.319 97.7619C141.847 97.1508 141.524 96.4379 141.376 95.6799C140.624 92.4799 141.776 89.2799 143.184 86.4159C143.718 85.3058 144.333 84.2363 145.024 83.2159C146.216 84.3243 147.62 85.1794 149.152 85.7295C150.684 86.2795 152.311 86.513 153.936 86.4159C154.833 86.423 155.723 86.2602 156.56 85.9359C156.656 87.5359 154.96 94.9119 158.048 93.9359C158.919 93.5319 159.764 93.0723 160.576 92.5599C161.792 92.0159 161.904 92.9279 162.016 93.3919C162.4 94.9919 160.416 96.0799 158.912 96.7519C158.352 97.0079 158.304 97.1199 158.256 97.3119C158.048 97.9519 157.648 103.376 157.632 103.552C153.824 105.456 153.984 105.152 149.456 107.216C148.16 107.792 147.856 107.936 147.648 108.032C147.328 107.136 146.848 105.296 146.688 104.72L147.984 100.8C148.013 100.714 148.023 100.622 148.013 100.532C148.003 100.441 147.973 100.354 147.926 100.276C147.879 100.199 147.815 100.132 147.739 100.082C147.664 100.031 147.578 99.9978 147.488 99.9839C146.341 99.7964 145.208 99.5345 144.096 99.1999ZM146.352 108.256C144.986 108.714 143.566 108.989 142.128 109.072C141.889 107.422 141.889 105.746 142.128 104.096C142.688 104.256 145.216 105.152 145.216 105.152C145.68 106.159 146.06 107.202 146.352 108.272V108.256ZM116.016 63.9999C115.84 63.4559 111.968 59.5999 112.32 58.3679C113.024 58.3679 113.376 58.8639 113.792 59.3759C114.256 59.9587 114.678 60.5736 115.056 61.2159C115.12 61.3644 115.24 61.4816 115.39 61.5416C115.54 61.6016 115.707 61.5996 115.856 61.5359C116.004 61.4722 116.122 61.3522 116.182 61.2022C116.242 61.0521 116.24 60.8844 116.176 60.7359C115.833 59.7612 115.691 58.7269 115.76 57.6959C116.336 57.9679 117.088 59.6319 117.36 60.1919C117.423 60.3229 117.53 60.4277 117.663 60.4881C117.795 60.5486 117.944 60.5609 118.085 60.5229C118.225 60.4849 118.348 60.3991 118.432 60.2802C118.516 60.1614 118.555 60.0169 118.544 59.8719C118.448 59.2479 118.176 56.3839 118.544 56.6719H118.432C119.072 56.6719 120.032 59.7919 120.032 60.0639C120.624 61.9199 122.336 59.5839 124.192 59.1359C123.978 59.7522 123.64 60.3184 123.2 60.7999C121.6 62.8799 121.024 62.8319 121.12 63.5839C121.12 63.7919 123.76 72.9919 126.192 78.9119C123.612 79.5364 121.107 80.4376 118.72 81.5999C118.4 79.1199 116.8 66.2239 116.016 63.9999ZM118.272 88.1119C117.365 86.6725 116.867 85.013 116.832 83.3119C117.056 82.6559 125.904 79.6479 127.904 79.8559C128.479 81.359 128.709 82.9721 128.576 84.5759C127.232 85.4079 120 88.1599 118.272 88.0959V88.1119ZM120.576 158.16C119.913 156.978 119.708 155.595 120 154.272C120.033 154.29 120.07 154.301 120.107 154.304C120.145 154.306 120.183 154.3 120.218 154.287C120.253 154.273 120.285 154.252 120.311 154.224C120.337 154.197 120.356 154.164 120.368 154.128C120.768 152.64 134.032 152.528 135.552 152.528C135.303 154.041 135.379 155.59 135.776 157.072C133.92 157.072 122.32 157.424 120.576 158.144V158.16ZM143.888 152.432C144.113 154.207 144.048 156.006 143.696 157.76C141.573 158.111 139.405 158.073 137.296 157.648C136.588 155.949 136.399 154.078 136.752 152.272C138.912 151.903 141.107 151.774 143.296 151.888C143.632 151.888 143.728 151.744 143.888 152.416V152.432ZM143.744 157.744C143.744 157.856 143.792 157.712 143.744 157.728V157.744ZM161.136 154.16C161.51 154.727 161.754 155.37 161.848 156.042C161.942 156.715 161.885 157.4 161.68 158.048C159.04 157.024 147.712 156.96 144.864 156.944C144.953 155.479 144.84 154.01 144.528 152.576C146.096 152.592 160 153.008 161.136 154.144V154.16ZM131.2 269.472C128.93 269.616 126.654 269.616 124.384 269.472C124.144 269.472 124.496 270 124.624 267.056C126.672 267.408 129.168 267.856 131.2 268.096V269.472ZM168.928 121.76C165.52 127.728 162.24 145.936 161.12 152.768C157.824 151.648 147.184 151.424 143.712 151.392C142.48 151.104 136.768 150.544 135.936 151.504C132.928 151.6 123.392 152 120.704 153.28C119.904 138.24 124.576 121.008 124.448 116.016C124.448 113.28 120.368 93.6159 119.456 88.9919C122.704 88.2881 125.86 87.2144 128.864 85.7919C131.36 90.5119 137.248 100.8 141.584 104C141.328 105.136 140.512 108.96 141.216 109.888C141.43 110.081 141.685 110.224 141.963 110.304C142.24 110.385 142.532 110.401 142.816 110.352C142.469 111.206 142.29 112.118 142.288 113.04C141.422 114.059 140.615 115.128 139.872 116.24C136.073 122.604 134.924 130.205 136.672 137.408C137.104 139.248 137.936 143.616 139.968 144.016C140.4 144.016 141.072 144.016 141.44 144.208L145.792 145.616C145.949 145.666 146.12 145.653 146.267 145.578C146.413 145.503 146.525 145.373 146.576 145.216C146.704 144.88 146.976 143.28 147.056 143.024C147.392 141.968 148.656 140 147.712 139.296C143.184 135.952 142.688 127.744 143.424 122.16C144.146 119.704 145.055 117.308 146.144 114.992C146.399 115.014 146.655 114.975 146.892 114.877C147.129 114.78 147.339 114.627 147.504 114.432C148.624 113.504 148.176 113.584 148.496 113.776C148.639 113.84 148.795 113.873 148.952 113.873C149.109 113.873 149.264 113.84 149.408 113.776C153.591 111.958 157.539 109.643 161.168 106.88C161.68 106.464 161.296 105.84 160.832 105.376C168.24 103.344 181.088 94.9919 189.264 91.1679C190.951 93.987 192.867 96.6626 194.992 99.1679C187.808 105.424 170.656 118.72 168.928 121.76ZM189.44 89.1359C190.478 88.2876 191.751 87.7792 193.088 87.6799C195.806 90.4873 198.21 93.583 200.256 96.9119C200.256 97.4239 197.584 99.2959 196.88 99.7119C195.312 98.6559 190.48 90.8639 189.44 89.1359ZM213.808 78.0959C213.858 78.1148 213.903 78.146 213.938 78.1868C213.973 78.2276 213.998 78.2765 214.009 78.3292C214.02 78.3818 214.018 78.4364 214.002 78.4879C213.987 78.5394 213.958 78.5862 213.92 78.6239C213.017 79.3284 212.028 79.9145 210.976 80.3679C210.901 80.4026 210.834 80.4516 210.779 80.5122C210.723 80.5727 210.68 80.6437 210.652 80.7209C210.623 80.7982 210.611 80.8803 210.614 80.9624C210.618 81.0446 210.637 81.1253 210.672 81.1999C210.707 81.2745 210.756 81.3415 210.816 81.3972C210.877 81.4528 210.948 81.496 211.025 81.5242C211.102 81.5524 211.184 81.5652 211.266 81.5617C211.349 81.5582 211.429 81.5386 211.504 81.5039C212.438 81.0189 213.462 80.7303 214.512 80.6559C214.533 80.6642 214.551 80.6786 214.563 80.6971C214.576 80.7156 214.582 80.7375 214.582 80.7599C214.582 80.7823 214.576 80.8042 214.563 80.8227C214.551 80.8412 214.533 80.8556 214.512 80.8639C213.539 81.4362 212.516 81.9182 211.456 82.3039C211.325 82.3773 211.224 82.4958 211.173 82.6375C211.122 82.7792 211.124 82.9345 211.179 83.0748C211.233 83.2152 211.337 83.331 211.47 83.4011C211.603 83.4711 211.757 83.4906 211.904 83.4559C212.384 83.2639 214.048 82.7359 214.112 83.0719C214.32 83.9999 208.256 85.5039 207.712 85.6799C205.024 86.5919 207.488 84.9599 199.072 93.8239C197.919 91.9012 196.647 90.0523 195.264 88.2879L205.168 80.8639C205.328 80.7359 205.248 80.7679 206.208 78.8799C206.496 78.2879 206.928 77.1359 207.328 77.9039C207.408 78.0639 207.024 79.5839 207.12 80.0959C207.132 80.2055 207.168 80.3112 207.225 80.4057C207.282 80.5003 207.359 80.5814 207.45 80.6437C207.541 80.7059 207.644 80.7478 207.753 80.7665C207.862 80.7852 207.973 80.7802 208.08 80.7519C208.752 80.5439 212.56 77.6319 213.808 78.0959ZM303.728 291.936C301.904 288.304 297.12 269.536 294.736 260.704C298.16 259.68 305.408 258.096 306.112 255.904C306.816 253.712 304.64 250.128 303.872 248.384C301.024 241.984 298.608 216.096 296.416 206.912C295.648 202.861 294.284 198.946 292.368 195.296C292.449 195.206 292.514 195.103 292.56 194.992C292.746 194.293 292.88 193.582 292.96 192.864C292.976 192.724 292.955 192.582 292.899 192.453C292.843 192.324 292.753 192.212 292.64 192.128C293.124 190.281 293.8 188.49 294.656 186.784C297.991 182.088 300.497 176.855 302.064 171.312C302.678 169.384 302.553 167.296 301.712 165.456C301.7 165.422 301.681 165.391 301.656 165.365C301.632 165.339 301.602 165.317 301.569 165.302C301.537 165.288 301.501 165.279 301.465 165.278C301.429 165.277 301.394 165.283 301.36 165.296C300.992 165.408 301.232 165.696 301.36 166.72C301.568 170.4 293.792 182.208 284.208 185.824C279.936 187.424 266.768 186.992 262.08 186.48C262.176 187.136 262.528 188.624 263.104 188.848C262.954 189.528 262.954 190.232 263.104 190.912C262.416 192.512 256.256 215.888 255.84 217.472C252.64 230 245.44 243.36 238.96 255.616C238.128 257.216 237.632 259.648 238.736 261.024C240.987 263.382 243.898 265.005 247.088 265.68C243.344 276.528 237.056 294.784 236.256 297.008C234.528 297.808 227.952 299.376 225.552 300.496C223.808 301.328 222.736 303.84 224.496 304.624C227.376 305.888 237.648 304.992 240.768 304.624V306.224C240.758 306.375 240.805 306.525 240.9 306.643C240.995 306.762 241.13 306.84 241.28 306.864L244.832 307.424C244.915 307.438 245.001 307.435 245.083 307.416C245.166 307.397 245.243 307.361 245.312 307.312C245.616 307.088 245.488 307.312 246.336 300.128C246.656 299.52 256.944 279.328 262.56 268.368C267.109 268.266 271.647 267.865 276.144 267.168C276.728 267.087 277.306 266.964 277.872 266.8C280.736 273.648 288.4 291.856 292.88 296.8C291.152 300 285.536 308.576 288.08 310.096C290.912 311.824 298.48 302.208 301.728 298.64C302.304 299.232 303.104 300.128 303.792 300.08C304.488 300.006 305.151 299.746 305.712 299.328C307.728 297.744 305.408 295.28 303.728 291.936ZM263.84 191.136C263.504 190.354 263.421 189.487 263.6 188.656C263.936 188.656 290.912 192.848 291.696 193.072C291.624 193.54 291.528 194.005 291.408 194.464C284.96 194.88 265.216 191.808 263.84 191.2V191.136ZM245.408 299.2C244 299.385 242.568 299.245 241.223 298.79C239.877 298.336 238.654 297.578 237.648 296.576C239.248 291.984 244.464 275.776 247.696 265.904C252.246 267.384 256.979 268.224 261.76 268.4C256.293 278.658 250.842 288.924 245.408 299.2ZM275.936 265.984C273.456 266.288 271.136 266.608 268.736 266.832C274.32 246.8 280.352 221.584 281.536 200.864C281.541 200.799 281.52 200.734 281.478 200.683C281.437 200.633 281.377 200.6 281.312 200.592C280.576 200.592 281.856 201.264 276.768 227.488C275.856 232.288 268.944 263.424 268.16 266.88C263.951 267.353 259.697 267.24 255.52 266.544C266.608 248.832 272.576 220.672 274.88 199.808C274.885 199.745 274.867 199.682 274.828 199.632C274.79 199.582 274.734 199.548 274.672 199.536C274.256 199.536 274.576 199.28 273.072 208C269.872 225.152 263.92 251.408 255.056 266.448C251.536 265.685 248.059 264.735 244.64 263.6C258.112 249.376 266.032 218.32 268.544 198.752C268.553 198.686 268.537 198.62 268.498 198.566C268.459 198.512 268.401 198.476 268.336 198.464C267.904 198.464 268.336 198.256 266.464 206.88C262.976 223.344 255.264 250.736 244.064 263.392C242.355 262.735 240.833 261.669 239.632 260.288C238.896 259.36 239.424 257.296 239.984 256.24C246.384 243.968 253.568 230.64 256.848 217.84C258.992 209.312 263.504 192.336 263.632 191.888C265.92 192.976 288.736 196.832 291.888 195.664C293.722 199.284 295.011 203.155 295.712 207.152C297.824 216.416 299.872 242.096 302.816 248.912C303.392 250.256 305.52 254.032 304.976 255.632C304.624 256.656 299.856 258.048 298.832 258.352C294.16 248.656 293.2 212.656 289.968 201.088C289.951 201.022 289.909 200.966 289.85 200.931C289.792 200.897 289.722 200.887 289.656 200.904C289.59 200.921 289.534 200.963 289.499 201.022C289.465 201.08 289.455 201.15 289.472 201.216C291.504 209.568 292.176 246.96 298.32 258.496C295.888 259.2 293.52 259.776 292.672 260.176C291.28 260.816 287.312 262.368 283.504 263.712C285.472 243.536 287.04 221.792 286.304 201.312C286.29 201.257 286.258 201.208 286.213 201.173C286.168 201.138 286.113 201.119 286.056 201.119C285.999 201.119 285.944 201.138 285.899 201.173C285.854 201.208 285.822 201.257 285.808 201.312C285.808 203.152 283.248 258.912 282.976 263.84C280.679 264.71 278.328 265.426 275.936 265.984ZM293.056 295.312C288.88 290.016 281.424 273.408 278.432 266.656C285.152 264.72 293.312 261.168 293.936 260.96C295.952 269.104 299.44 283.648 301.76 290.272C299.028 292.228 296.113 293.916 293.056 295.312Z" fill="#362D2E"/>
<path fill-rule="evenodd" clip-rule="evenodd" d="M237.425 175.456C236.193 175.456 235.473 176.224 235.825 177.472C235.924 177.734 236.103 177.958 236.337 178.112C236.151 178.27 236.009 178.474 235.925 178.703C235.841 178.932 235.817 179.179 235.855 179.42C235.894 179.66 235.994 179.887 236.145 180.079C236.297 180.27 236.495 180.419 236.721 180.512C235.809 181.264 236.577 182.496 237.681 182.704C238.531 182.925 239.412 183.006 240.289 182.944C242.081 182.784 243.889 181.904 245.537 182.112C247.185 182.32 248.129 182.4 255.745 183.232V184.368C255.758 184.504 255.807 184.634 255.885 184.746C255.964 184.858 256.07 184.948 256.193 185.008C256.628 185.192 257.085 185.321 257.553 185.392C265.857 186.992 280.769 186 283.681 184.848C290.465 182.224 296.993 174.736 299.393 169.056C299.735 168.366 299.936 167.616 299.985 166.848C299.964 165.576 299.51 164.348 298.699 163.368C297.888 162.388 296.767 161.714 295.521 161.456C291.409 160.608 286.353 163.552 282.721 165.808C277.233 169.232 271.905 173.6 271.057 173.536C270.881 173.536 260.593 171.936 256.945 173.648C256.481 173.856 256.401 174.56 256.321 175.104C252.705 175.104 247.137 175.216 245.121 175.472C244.563 175.621 243.997 175.733 243.425 175.808C243.233 175.808 243.201 175.808 243.057 175.296C242.753 174.208 242.753 172.944 241.761 172.4C240.769 171.856 239.489 172.736 239.633 175.824C238.93 175.552 238.178 175.426 237.425 175.456ZM239.153 176.848C239.713 177.072 240.305 177.44 240.753 177.04C241.201 176.64 240.929 176.064 240.929 175.584C240.929 175.104 240.929 173.792 241.361 173.472C241.451 173.571 241.531 173.678 241.601 173.792C241.985 174.544 241.921 175.92 242.609 176.592C243.297 177.264 244.593 176.592 245.377 176.512C247.393 176.192 252.801 175.92 256.385 175.744C256.161 177.472 255.953 180.544 255.873 182.544C256.081 182.544 247.073 181.264 245.793 181.056C243.505 180.704 241.169 182.08 239.089 181.712C238.622 181.643 238.162 181.536 237.713 181.392C238.511 181.082 239.354 180.904 240.209 180.864C240.358 180.829 240.49 180.741 240.578 180.615C240.667 180.49 240.706 180.336 240.688 180.183C240.67 180.031 240.597 179.89 240.482 179.788C240.367 179.687 240.218 179.631 240.065 179.632C239.279 179.653 238.492 179.611 237.713 179.504C237.297 179.504 236.849 179.104 237.713 179.008C238.577 178.912 239.809 179.008 240.097 179.008C240.252 179.013 240.403 178.96 240.522 178.86C240.64 178.759 240.717 178.618 240.737 178.465C240.757 178.311 240.719 178.155 240.63 178.027C240.541 177.9 240.408 177.81 240.257 177.776C237.617 177.216 238.897 177.568 237.601 177.296C236.833 177.136 237.073 176.8 237.601 176.768C238.119 176.74 238.64 176.766 239.153 176.848Z" fill="#362D2E"/>
<path fill-rule="evenodd" clip-rule="evenodd" d="M311.793 145.84C311.217 144.636 310.306 143.625 309.169 142.928C308.209 142.048 309.041 140.672 308.465 138.24C308.144 137.003 307.548 135.854 306.721 134.88C304.641 132.144 303.377 132.752 303.105 130.208C303.093 129.371 302.936 128.543 302.641 127.76C302.106 126.727 301.359 125.818 300.45 125.093C299.54 124.368 298.487 123.843 297.361 123.552C296.697 123.248 295.979 123.08 295.249 123.056C292.961 123.056 291.793 124.144 290.017 125.024C290.017 125.024 289.777 124.928 289.729 124.896C289.213 124.313 288.489 123.957 287.713 123.904C286.134 123.922 284.58 124.299 283.169 125.008C282.625 125.28 282.144 125.66 281.753 126.125C281.362 126.59 281.071 127.13 280.897 127.712C280.337 128.752 279.297 127.712 277.345 129.312C276.816 129.774 276.414 130.363 276.177 131.024C275.967 131.436 275.886 131.902 275.943 132.361C276 132.82 276.193 133.251 276.497 133.6C276.817 134 276.721 133.6 275.377 134.224C274.149 134.812 273.097 135.713 272.328 136.837C271.558 137.96 271.098 139.266 270.993 140.624C271.048 141.46 271.29 142.273 271.7 143.004C272.109 143.734 272.677 144.364 273.361 144.848C274.368 145.198 275.408 145.445 276.465 145.584C277.569 145.984 278.481 147.184 280.161 146.928C280.269 147.83 280.557 148.7 281.009 149.488C281.435 150.485 282.216 151.289 283.201 151.744C282.737 152.272 281.681 153.344 281.089 153.936C278.081 152.928 261.521 147.536 259.249 145.392C256.737 143.024 252.849 136.56 249.937 132.928C249.665 132.592 249.025 132.816 248.545 132.928C248.065 132.208 243.745 125.824 243.745 125.504C243.745 125.504 243.825 125.504 243.937 125.264C244.372 124.809 244.667 124.237 244.786 123.619C244.905 123 244.844 122.361 244.609 121.776C244.001 120.448 242.721 119.264 241.409 119.824C241.089 117.504 240.577 115.264 240.305 114.128C243.185 114.128 252.385 113.824 253.105 111.024C254.001 107.52 244.513 102.288 241.345 100.912C241.249 98.144 240.833 87.728 238.145 86.944C234.945 86.016 228.545 93.344 226.513 95.776C223.358 94.9123 220.103 94.4711 216.833 94.464C215.089 94.464 211.185 94.464 210.113 95.904C207.889 98.704 216.513 104.528 219.569 106.448C215.777 109.024 207.441 113.136 208.785 116.048C210.129 118.96 223.793 117.296 227.025 116.864C229.39 120 232.07 122.884 235.025 125.472C236.242 129.418 237.75 133.269 239.537 136.992C239.244 137.16 238.965 137.353 238.705 137.568C238.673 137.615 238.656 137.671 238.656 137.728C238.656 137.785 238.673 137.841 238.705 137.888C239.313 139.376 246.913 153.584 247.889 154.528C255.745 162.144 264.625 162.848 265.745 164.64C265.745 165.392 264.801 168.704 263.937 172.32C266.363 172.316 268.788 172.444 271.201 172.704C274.001 171.2 280.257 165.36 287.441 161.84C294.625 158.32 297.505 161.136 297.761 160.736C297.777 160.718 297.785 160.696 297.785 160.672C297.785 160.648 297.777 160.626 297.761 160.608C295.777 159.008 295.601 158.88 291.729 157.408C292.017 156.128 292.433 154.064 292.641 153.296C293.467 152.907 294.211 152.364 294.833 151.696C295.617 151.888 295.761 152.688 296.673 152.864C298.27 152.824 299.809 152.262 301.057 151.264C301.425 150.992 302.289 150.32 302.657 150.336C303.441 150.336 304.257 151.264 305.137 151.504C308.801 152.592 312.977 149.152 311.793 145.84ZM227.665 116.032C227.603 115.959 227.523 115.903 227.434 115.869C227.344 115.836 227.247 115.826 227.153 115.84C222.916 116.493 218.639 116.852 214.353 116.912C209.345 116.816 207.713 115.84 211.553 112.592C215.825 108.992 221.041 106.832 220.177 106.288C217.889 104.848 208.977 98.544 210.737 96.448C211.601 95.392 215.537 95.376 216.833 95.408C220.115 95.458 223.373 95.9696 226.513 96.928C226.616 96.9663 226.728 96.9715 226.834 96.9428C226.941 96.9141 227.035 96.853 227.105 96.768C228.785 94.752 236.497 86.416 238.081 88.352C239.665 90.288 240.065 98.976 240.113 101.392C240.112 101.513 240.148 101.632 240.216 101.733C240.285 101.833 240.383 101.909 240.497 101.952C243.329 103.072 252.481 108.352 251.873 110.752C251.873 111.04 251.473 111.248 251.057 111.44C248.593 112.656 242.225 112.96 239.521 112.96C239.426 112.96 239.333 112.981 239.249 113.022C239.164 113.063 239.089 113.123 239.031 113.197C238.972 113.271 238.931 113.357 238.911 113.449C238.89 113.541 238.891 113.636 238.913 113.728C239.601 116.352 240.993 122.896 240.305 125.536C240.193 125.984 240.065 126.336 239.761 126.432C236.977 127.344 229.441 118.4 227.665 116.032ZM240.017 136.832C238.753 133.744 237.489 129.872 236.545 126.688C239.633 128.64 241.569 128 241.665 123.984C242.273 123.536 241.889 122.784 241.665 122.176C241.665 121.872 241.665 121.552 241.585 121.248C242.417 120.592 243.185 121.52 243.601 122.4C244.257 123.744 242.689 124.784 242.705 125.6C242.721 126.416 247.505 132.544 247.969 133.168C246.881 133.584 241.601 135.904 240.001 136.784L240.017 136.832ZM295.297 143.44C295.169 144.8 293.233 145.776 292.593 147.264C292.185 148.363 292.185 149.573 292.593 150.672C292.782 151.044 293.101 151.334 293.489 151.488C292.129 152.736 291.889 152.272 291.569 152.864C291.249 153.456 290.433 158.016 290.065 159.056C288.465 160.32 285.905 160.064 283.873 159.728C282.272 159.352 280.855 158.423 279.873 157.104C280.929 155.808 284.433 152.576 284.577 151.92C284.721 151.264 284.129 150.88 283.553 150.576C283.329 150.448 282.913 150.384 282.129 148.976C280.977 146.88 281.329 145.056 281.441 142.464C281.441 141.088 281.441 139.632 281.569 138.224C281.686 136.988 282.045 135.786 282.625 134.688C282.907 134.64 283.181 134.553 283.441 134.432C284.456 133.678 285.319 132.739 285.985 131.664C286.012 132.063 286.127 132.45 286.321 132.8C286.961 133.872 287.921 133.312 289.025 133.648C289.058 133.763 289.058 133.885 289.025 134C288.952 134.332 288.952 134.676 289.025 135.008C289.259 135.484 289.611 135.891 290.049 136.191C290.486 136.491 290.993 136.673 291.521 136.72C291.761 136.72 292.385 136.72 292.497 136.88C292.497 137.424 291.873 137.792 292.033 139.264C292.112 140.043 292.457 140.772 293.009 141.328C294.401 142.752 295.393 142.208 295.297 143.392V143.44Z" fill="#362D2E"/>
<path fill-rule="evenodd" clip-rule="evenodd" d="M283.568 140.224C283.776 138.912 282.496 139.024 282.384 140.032V140.56C282.408 140.702 282.481 140.832 282.591 140.925C282.701 141.018 282.84 141.07 282.984 141.07C283.129 141.07 283.268 141.018 283.378 140.925C283.488 140.832 283.561 140.702 283.584 140.56C283.572 140.448 283.567 140.336 283.568 140.224ZM284.56 143.728C286.304 139.04 285.856 140.08 286.16 139.424C286.19 139.367 286.198 139.301 286.181 139.238C286.165 139.176 286.125 139.122 286.07 139.088C286.016 139.054 285.95 139.041 285.887 139.053C285.823 139.065 285.767 139.1 285.728 139.152C285.242 139.698 284.813 140.294 284.448 140.928C284.018 141.711 283.685 142.544 283.456 143.408C283.396 143.602 283.389 143.808 283.437 144.006C283.485 144.203 283.586 144.383 283.728 144.528C284.027 144.851 284.417 145.073 284.847 145.165C285.277 145.256 285.724 145.213 286.128 145.04C286.183 145.026 286.232 144.994 286.267 144.949C286.302 144.904 286.321 144.849 286.321 144.792C286.321 144.735 286.302 144.68 286.267 144.635C286.232 144.59 286.183 144.558 286.128 144.544C285.821 144.543 285.518 144.469 285.245 144.327C284.972 144.185 284.737 143.98 284.56 143.728ZM288.576 140.4C288.496 140.656 288.416 140.992 288.288 141.44C288.246 141.593 288.266 141.756 288.344 141.894C288.422 142.032 288.552 142.134 288.704 142.176C288.857 142.218 289.02 142.198 289.159 142.12C289.297 142.042 289.398 141.913 289.44 141.76C289.6 141.216 289.648 140.992 289.712 140.8C289.742 140.656 289.718 140.507 289.645 140.379C289.573 140.251 289.457 140.154 289.318 140.106C289.18 140.057 289.029 140.06 288.892 140.114C288.756 140.168 288.644 140.27 288.576 140.4ZM287.28 146.976C287.021 147.36 286.67 147.673 286.26 147.888C285.849 148.103 285.392 148.213 284.928 148.208C284.894 148.189 284.856 148.178 284.818 148.176C284.779 148.174 284.74 148.181 284.704 148.196C284.668 148.212 284.637 148.235 284.611 148.264C284.586 148.294 284.567 148.328 284.557 148.366C284.547 148.404 284.546 148.443 284.553 148.481C284.561 148.519 284.577 148.555 284.6 148.586C284.624 148.617 284.654 148.643 284.689 148.66C284.723 148.678 284.761 148.687 284.8 148.688C285.086 148.887 285.421 149.004 285.768 149.023C286.116 149.043 286.462 148.965 286.767 148.799C287.073 148.633 287.327 148.385 287.499 148.082C287.672 147.78 287.757 147.436 287.744 147.088C287.752 147.029 287.738 146.97 287.704 146.921C287.671 146.872 287.62 146.837 287.563 146.823C287.505 146.809 287.444 146.817 287.392 146.845C287.34 146.874 287.3 146.92 287.28 146.976ZM140.432 60.2399C146.096 62.2559 160.896 60.5439 166.848 59.6639C170.336 64.4639 178.912 75.4879 184.448 77.5519C186.56 78.3199 188.208 77.9039 188.96 75.7759C190.56 71.2959 188.192 59.7759 187.136 54.9759C191.664 54.9759 202.224 54.4479 205.968 51.9199C212.64 47.4239 195.728 36.4479 188.832 33.3119C188.672 28.6239 187.952 14.9439 185.392 10.9119C184.608 9.69594 183.52 9.18394 181.52 9.87194C176.72 11.5679 169.056 20.5439 165.872 24.6239C160.336 22.6399 148.672 21.4239 143.008 22.9279C140.72 23.5199 139.104 24.5279 139.616 26.9439C140.656 31.7439 151.072 39.4719 155.136 42.2559C150.864 45.4559 140.16 51.4079 138.192 55.9519C137.376 58.0799 138.288 59.4719 140.432 60.2399ZM155.792 42.5439C155.825 42.522 155.852 42.4923 155.871 42.4574C155.89 42.4225 155.9 42.3835 155.9 42.3439C155.9 42.3043 155.89 42.2653 155.871 42.2304C155.852 42.1956 155.825 42.1658 155.792 42.1439C151.792 39.4559 142.288 32.1439 140.624 27.5359C139.808 25.3279 140.992 24.3359 143.296 23.8239C148.816 22.4319 160.624 23.7279 165.936 25.8399C166.043 25.8802 166.16 25.8849 166.27 25.8531C166.379 25.8214 166.476 25.755 166.544 25.6639C169.104 22.3359 179.792 9.66394 183.728 10.9439C186.72 11.9039 187.6 30.3839 187.68 33.8079C187.683 33.9284 187.721 34.0454 187.79 34.1447C187.858 34.2441 187.953 34.3216 188.064 34.3679C193.744 36.7679 210.464 47.5359 205.36 50.9439C201.84 53.3279 190.704 53.8239 186.432 53.8239C186.338 53.8231 186.246 53.844 186.161 53.8851C186.077 53.9262 186.003 53.9863 185.945 54.0607C185.888 54.1351 185.849 54.2218 185.83 54.314C185.812 54.4062 185.816 54.5013 185.84 54.5919C186.912 58.9439 189.408 71.1519 187.92 75.3919C185.648 81.7919 171.584 64.4479 167.552 58.7839C167.491 58.7054 167.409 58.6447 167.317 58.6081C167.224 58.5715 167.123 58.5604 167.024 58.5759C162.56 59.2799 140.704 62.2559 138.864 58.1599C137.024 54.0639 151.536 45.8399 155.792 42.5439ZM144.528 89.0719C144.528 88.9439 144.688 88.2719 144.704 88.2559C144.75 88.1179 144.744 87.9681 144.689 87.8337C144.633 87.6993 144.532 87.5892 144.402 87.5234C144.272 87.4576 144.123 87.4405 143.982 87.4751C143.841 87.5096 143.717 87.5937 143.632 87.7119C143.518 88.0224 143.438 88.3442 143.392 88.6719C143.363 88.8157 143.387 88.9652 143.459 89.0928C143.532 89.2204 143.648 89.3176 143.786 89.3663C143.925 89.415 144.076 89.4121 144.212 89.358C144.349 89.3039 144.461 89.2023 144.528 89.0719ZM146.864 88.5439C145.642 89.6969 144.771 91.1725 144.352 92.7999C144.227 93.1297 144.227 93.4941 144.352 93.8239C144.832 94.4479 145.456 94.2719 146.272 94.0639C146.327 94.0498 146.376 94.0178 146.411 93.9729C146.446 93.928 146.465 93.8728 146.465 93.8159C146.465 93.7591 146.446 93.7039 146.411 93.659C146.376 93.6141 146.327 93.582 146.272 93.5679C145.96 93.5313 145.654 93.4561 145.36 93.3439C145.36 93.1839 146.464 90.7999 146.96 89.6479C147.072 89.3439 147.168 89.1039 147.248 88.9119C147.328 88.7199 147.056 88.2719 146.864 88.5439ZM150.16 90.6719C150.304 90.1759 150.352 90.0319 150.384 89.8879C150.403 89.8123 150.407 89.7337 150.396 89.6565C150.384 89.5794 150.358 89.5053 150.317 89.4385C150.277 89.3716 150.224 89.3133 150.162 89.2669C150.099 89.2205 150.028 89.1869 149.952 89.1679C149.877 89.149 149.798 89.1452 149.721 89.1567C149.644 89.1682 149.57 89.1947 149.503 89.2348C149.436 89.2749 149.378 89.3278 149.331 89.3905C149.285 89.4531 149.251 89.5243 149.232 89.5999L149.008 90.3679C148.988 90.4436 148.984 90.5224 148.994 90.5999C149.005 90.6775 149.03 90.7522 149.07 90.8198C149.109 90.8874 149.161 90.9465 149.224 90.9939C149.286 91.0413 149.357 91.076 149.432 91.0959C149.508 91.1159 149.587 91.1208 149.664 91.1103C149.742 91.0998 149.817 91.0741 149.884 91.0347C149.952 90.9953 150.011 90.943 150.058 90.8808C150.106 90.8186 150.14 90.7476 150.16 90.6719ZM148.672 96.9759C149.045 96.6281 149.316 96.1857 149.456 95.6959C149.473 95.6686 149.484 95.6383 149.49 95.6066C149.495 95.5749 149.493 95.5426 149.486 95.5114C149.479 95.4802 149.465 95.4507 149.446 95.4248C149.427 95.3988 149.404 95.3767 149.376 95.3599C149.349 95.3431 149.319 95.3319 149.287 95.3268C149.255 95.3217 149.223 95.3229 149.192 95.3304C149.161 95.3378 149.131 95.3513 149.105 95.3701C149.079 95.3889 149.057 95.4126 149.04 95.4399C148.302 96.0025 147.432 96.3661 146.512 96.4959L144.624 96.6879C144.59 96.6691 144.552 96.6583 144.514 96.6563C144.475 96.6543 144.436 96.6612 144.4 96.6764C144.364 96.6917 144.333 96.7149 144.307 96.7442C144.282 96.7736 144.263 96.8084 144.253 96.846C144.243 96.8836 144.242 96.923 144.249 96.9611C144.257 96.9993 144.273 97.0353 144.296 97.0663C144.32 97.0973 144.35 97.1226 144.385 97.1402C144.419 97.1578 144.457 97.1673 144.496 97.1679C144.7 97.2886 144.914 97.3904 145.136 97.4719C145.719 97.6977 146.35 97.7706 146.969 97.6838C147.588 97.597 148.174 97.3533 148.672 96.9759Z" fill="#362D2E"/>
</svg>
