<svg width="22" height="22" viewBox="0 0 22 22" fill="none" xmlns="http://www.w3.org/2000/svg">
<path d="M11.0623 21C12.407 21.0001 13.738 20.7305 14.9768 20.2073C16.2155 19.6841 17.3367 18.9178 18.2742 17.9538C19.2116 16.9898 19.9463 15.8476 20.4347 14.5947C20.9231 13.3419 21.1553 12.0038 21.1176 10.6597C19.7109 11.6388 18.0216 12.1289 16.3093 12.0546C14.5969 11.9803 12.9564 11.3458 11.6397 10.2485C10.3231 9.15124 9.4032 7.65196 9.02145 5.98108C8.63969 4.3102 8.81721 2.56019 9.5267 1C7.02122 1.3861 4.75392 2.70401 3.17844 4.69004C1.60295 6.67608 0.835464 9.18376 1.02954 11.7114C1.22361 14.239 2.36493 16.6001 4.22514 18.3223C6.08535 20.0446 8.52727 21.0009 11.0623 21Z" stroke="#001434" stroke-width="1.5" stroke-linecap="round" stroke-linejoin="round"/>
</svg>
