<svg width="24" height="24" viewBox="0 0 24 24" fill="none" xmlns="http://www.w3.org/2000/svg">
<path fill-rule="evenodd" clip-rule="evenodd" d="M11.469 17.0309C11.5386 17.1007 11.6214 17.1561 11.7125 17.1939C11.8036 17.2318 11.9013 17.2512 12 17.2512C12.0986 17.2512 12.1963 17.2318 12.2874 17.1939C12.3785 17.1561 12.4613 17.1007 12.531 17.0309L21.531 8.03088C21.6718 7.89005 21.7509 7.69904 21.7509 7.49988C21.7509 7.30072 21.6718 7.10971 21.531 6.96888C21.3901 6.82805 21.1991 6.74893 21 6.74893C20.8008 6.74893 20.6098 6.82805 20.469 6.96888L12 15.4394L3.53097 6.96888C3.39014 6.82805 3.19913 6.74893 2.99997 6.74893C2.80081 6.74893 2.6098 6.82805 2.46897 6.96888C2.32814 7.10971 2.24902 7.30072 2.24902 7.49988C2.24902 7.69904 2.32814 7.89005 2.46897 8.03088L11.469 17.0309Z" fill="#868E96"/>
</svg>
