<svg width="49" height="48" viewBox="0 0 49 48" fill="none" xmlns="http://www.w3.org/2000/svg">
<rect x="0.75" y="0.25" width="47.5" height="47.5" rx="23.75" fill="white"/>
<rect x="0.75" y="0.25" width="47.5" height="47.5" rx="23.75" stroke="#F2F2F2" stroke-width="0.5"/>
<path d="M38.3337 24C38.3337 16.64 32.3603 10.6666 25.0003 10.6666C17.6403 10.6666 11.667 16.64 11.667 24C11.667 30.4533 16.2537 35.8266 22.3337 37.0666V28H19.667V24H22.3337V20.6666C22.3337 18.0933 24.427 16 27.0003 16H30.3337V20H27.667C26.9337 20 26.3337 20.6 26.3337 21.3333V24H30.3337V28H26.3337V37.2666C33.067 36.6 38.3337 30.92 38.3337 24Z" fill="#524344"/>
</svg>
