<svg width="320" height="320" viewBox="0 0 320 320" fill="none" xmlns="http://www.w3.org/2000/svg">
<path d="M134.752 73.024C133.92 71.0001 132.458 69.2979 130.583 68.169C128.709 67.0402 126.52 66.5448 124.342 66.756C122.164 66.9672 120.112 67.8738 118.489 69.3418C116.866 70.8097 115.759 72.7611 115.331 74.9071C114.903 77.0532 115.177 79.28 116.112 81.2582C117.048 83.2364 118.596 84.861 120.526 85.8915C122.457 86.922 124.668 87.3039 126.832 86.9805C128.996 86.6571 130.999 85.6458 132.544 84.096C133.96 82.6723 134.925 80.8625 135.318 78.893C135.711 76.9236 135.514 74.8821 134.752 73.024ZM131.84 83.328C130.565 84.5755 128.953 85.4213 127.202 85.7603C125.451 86.0993 123.639 85.9167 121.991 85.235C120.343 84.5533 118.932 83.4027 117.932 81.9259C116.933 80.4491 116.389 78.7112 116.368 76.928C116.417 74.5007 117.404 72.1867 119.123 70.4715C120.841 68.7562 123.156 67.773 125.584 67.728C127.374 67.7668 129.114 68.331 130.586 69.3503C132.058 70.3696 133.199 71.7992 133.865 73.4613C134.532 75.1234 134.695 76.9448 134.335 78.699C133.975 80.4532 133.107 82.0629 131.84 83.328Z" fill="#362D2E"/>
<path d="M122.72 78.4C123.36 78.192 123.584 77.184 123.248 76.16C122.912 75.136 122.128 74.48 121.488 74.688C120.848 74.896 120.64 75.888 120.976 76.912C121.312 77.936 122.096 78.656 122.72 78.4ZM128 77.008C128.656 76.896 129.056 75.952 128.896 74.88C128.736 73.808 128.064 73.04 127.408 73.136C126.752 73.232 126.368 74.176 126.528 75.248C126.688 76.32 127.328 77.104 128 77.008Z" fill="#362D2E"/>
<path d="M149.68 103.296C154.726 97.9307 158.072 91.1916 159.296 83.928C160.519 76.6644 159.565 69.2012 156.554 62.4788C153.543 55.7565 148.609 50.0758 142.375 46.1525C136.141 42.2292 128.885 40.239 121.522 40.4324C114.158 40.6259 107.017 42.9945 100.997 47.2398C94.9778 51.485 90.3495 57.417 87.6956 64.2882C85.0417 71.1594 84.4809 78.6624 86.084 85.8517C87.687 93.0411 91.3821 99.5951 96.7037 104.688L86.9117 117.648C86.3677 117.424 85.7757 117.2 85.1837 117.008C84.9629 116.938 84.7266 116.932 84.5027 116.992C84.2787 117.051 84.0765 117.173 83.9197 117.344C80.8637 120.72 68.6557 134.608 65.2157 140.432C62.9917 144.176 62.8797 146.672 64.8317 149.312C66.9249 151.856 69.7987 153.639 73.0077 154.384C79.6317 155.328 80.4157 151.552 96.5437 126.192C96.6682 126.011 96.7349 125.796 96.7349 125.576C96.7349 125.356 96.6682 125.141 96.5437 124.96C94.8711 122.821 92.8477 120.982 90.5597 119.52C89.2477 118.704 89.8717 117.488 91.1517 118.064C93.0517 118.781 94.8443 119.756 96.4797 120.96C96.5974 121.035 96.7395 121.062 96.8765 121.035C97.0135 121.008 97.1349 120.93 97.2157 120.816L104.4 110.4C107.462 112.098 110.747 113.359 114.16 114.144C114.48 118.144 115.456 125.04 115.76 126.672C116.064 128.304 116.368 130.608 118.96 130.304C130.464 128.88 150.256 124.816 151.392 124.448C152.528 124.08 154.592 123.52 154.144 121.024C153.229 114.985 151.735 109.048 149.68 103.296ZM113.84 105.808C107.867 103.955 102.641 100.244 98.9231 95.2149C95.2053 90.1861 93.1894 84.102 93.1688 77.8482C93.1482 71.5943 95.124 65.497 98.8086 60.4439C102.493 55.3907 107.694 51.6452 113.655 49.7527C119.616 47.8602 126.025 47.9194 131.95 49.9216C137.874 51.9238 143.005 55.7646 146.596 60.885C150.187 66.0053 152.05 72.138 151.914 78.3904C151.778 84.6428 149.65 90.6887 145.84 95.648C144.504 93.4602 142.621 91.6587 140.376 90.4212C138.131 89.1838 135.603 88.5533 133.04 88.592C128.823 88.5779 124.668 89.6056 120.944 91.584C117.264 93.872 114.032 98.816 113.84 105.808ZM136.88 112.208C138.368 115.136 138.48 115.264 138.48 115.408L135.632 121.024C129.984 117.072 130.032 117.184 130.032 117.024V114.32C132.377 113.825 134.671 113.107 136.88 112.176V112.208ZM129.68 106.256L128.96 95.808L133.264 105.104C132.095 105.556 130.898 105.93 129.68 106.224V106.256ZM134.48 104.656L129.504 94.88L132.368 89.52C134.948 89.377 137.517 89.9628 139.781 91.2105C142.044 92.4582 143.911 94.3176 145.168 96.576C142.238 100.036 138.555 102.778 134.4 104.592L134.48 104.656ZM128.576 94.24L123.776 91.584C126.158 90.688 128.64 90.0863 131.168 89.792L128.576 94.24ZM122.576 91.936L128.208 95.232L128.544 106.56C124.073 107.412 119.468 107.242 115.072 106.064C115.056 100.192 117.344 94.608 122.496 91.872L122.576 91.936ZM151.104 123.472C150.384 123.68 124.4 128.784 118.864 129.04C117.456 129.04 117.088 127.536 116.944 126.768C116.592 124.848 115.792 119.024 115.504 114.448C115.504 114.096 120.512 115.904 128.704 114.448C128.704 116.976 128.704 117.536 129.36 118.064L135.088 122.064C135.311 122.219 135.586 122.279 135.853 122.231C136.12 122.183 136.357 122.031 136.512 121.808C136.512 121.728 136.976 120.928 139.536 115.872C139.63 115.678 139.68 115.464 139.68 115.248C139.68 115.032 139.63 114.818 139.536 114.624L137.936 111.6C141.988 109.749 145.687 107.204 148.864 104.08C150.773 109.426 152.155 114.945 152.992 120.56C153.312 122.288 152.752 122.992 151.104 123.472ZM220.288 114.288L216.368 119.088C213.82 116.898 210.593 115.656 207.234 115.571C203.876 115.487 200.591 116.565 197.936 118.624C195.586 120.353 193.79 122.728 192.766 125.46C191.742 128.191 191.534 131.162 192.169 134.009C192.803 136.857 194.252 139.458 196.339 141.497C198.426 143.535 201.061 144.923 203.922 145.491C206.784 146.058 209.749 145.782 212.456 144.694C215.163 143.607 217.495 141.755 219.168 139.366C220.842 136.976 221.784 134.151 221.881 131.236C221.977 128.32 221.224 125.439 219.712 122.944L225.6 114.336C225.623 114.299 225.636 114.257 225.637 114.214C225.638 114.17 225.627 114.128 225.606 114.09C225.584 114.052 225.553 114.021 225.515 113.999C225.478 113.978 225.435 113.967 225.392 113.968C220.48 114.144 220.432 114.128 220.288 114.288ZM212.208 143.088C208.937 144.473 205.251 144.509 201.954 143.187C198.657 141.865 196.016 139.293 194.608 136.032C189.216 123.504 204.4 111.456 215.408 120.32L207.408 129.92C206.64 122.256 206.768 122.736 206.48 122.72C200.352 122.096 200.08 122 200.224 122.432C204.496 141.408 204.176 140.304 204.48 140.272C207.968 139.888 208.048 140.032 208.16 139.872L218.752 124.336C219.635 125.978 220.167 127.785 220.313 129.644C220.459 131.502 220.217 133.37 219.601 135.13C218.986 136.89 218.01 138.502 216.737 139.863C215.464 141.225 213.922 142.307 212.208 143.04V143.088Z" fill="#362D2E"/>
<path d="M175.68 129.232C174.288 129.008 173.968 129.056 168.496 130.016C167.328 130.208 128.912 136.784 108.352 140.592C106.305 140.982 104.492 142.155 103.297 143.861C102.102 145.567 101.619 147.672 101.952 149.728C102.704 156.512 106.576 158.352 108.832 158.848C111.088 159.344 112.304 158.944 115.984 158.224L176 147.2C184.592 145.68 185.2 130.784 175.68 129.232ZM115.616 156.8C111.088 157.648 110.496 157.76 109.072 157.424C104.944 156.528 103.664 152.624 103.312 149.584C103.15 148.737 103.159 147.866 103.336 147.022C103.514 146.178 103.858 145.377 104.348 144.667C104.838 143.957 105.464 143.352 106.189 142.885C106.915 142.419 107.726 142.102 108.576 141.952C141.616 136.4 172.576 130.368 174.48 130.368C175.961 130.397 177.393 130.903 178.563 131.811C179.734 132.719 180.58 133.981 180.976 135.408C182.464 140.976 179.376 145.328 175.856 145.984C175.888 146.128 135.2 153.152 115.616 156.8ZM192.736 181.392C194.464 184.288 195.792 186.608 197.392 189.52C195.424 189.952 193.792 190.336 192.288 190.688C192.211 190.704 192.141 190.743 192.087 190.798C192.032 190.854 191.994 190.924 191.979 191.001C191.964 191.077 191.971 191.157 192 191.229C192.03 191.301 192.079 191.364 192.144 191.408C192.336 191.552 191.936 191.568 197.92 190.48C204 201.584 203.68 201.968 204.32 201.68C204.4 201.625 204.46 201.545 204.489 201.452C204.518 201.359 204.515 201.259 204.48 201.168C203.424 198.72 201.44 194.432 199.248 190.288C199.248 190.288 220.784 186.352 226.992 185.296C228.976 188.768 230.192 191.28 231.904 194.576C221.52 196.496 212.112 198.608 205.456 200.304C205.404 200.315 205.355 200.335 205.312 200.364C205.268 200.394 205.231 200.432 205.202 200.475C205.173 200.519 205.153 200.568 205.143 200.62C205.133 200.671 205.133 200.725 205.144 200.776C205.154 200.827 205.175 200.876 205.204 200.92C205.233 200.963 205.271 201.001 205.315 201.03C205.359 201.059 205.408 201.079 205.459 201.089C205.511 201.099 205.564 201.099 205.616 201.088C208.816 200.432 230.464 196.192 232.496 195.792C236.432 203.952 236.128 204.368 236.64 204.336C236.705 204.339 236.77 204.327 236.829 204.299C236.889 204.272 236.94 204.23 236.98 204.178C237.019 204.126 237.045 204.065 237.056 204.001C237.066 203.936 237.061 203.87 237.04 203.808C235.968 200.944 234.848 198.176 233.664 195.568C245.536 193.248 256.72 191.376 266.944 190C271.056 195.616 271.616 196.992 272.976 198.768C265.2 200.048 240.464 204.256 221.424 208.928C221.335 208.965 221.262 209.032 221.219 209.118C221.175 209.203 221.164 209.302 221.188 209.395C221.211 209.488 221.267 209.57 221.346 209.625C221.424 209.68 221.52 209.706 221.616 209.696C225.392 209.152 274.224 199.568 274.064 199.616C274.16 199.568 274.233 199.484 274.269 199.383C274.305 199.281 274.3 199.17 274.256 199.072C271.648 193.12 258.144 175.184 245.072 164.448C244.944 164.351 244.784 164.305 244.624 164.32C184.576 168.448 61.6316 200 61.1516 200.88C61.1135 200.949 61.0969 201.029 61.1039 201.108C61.1108 201.187 61.1411 201.262 61.1908 201.323C61.2405 201.385 61.3074 201.431 61.3831 201.454C61.4587 201.478 61.5396 201.478 61.6156 201.456C67.0876 200.192 72.5276 198.704 77.9836 197.344C78.1756 197.696 79.0396 199.328 82.4476 205.824L63.1996 211.2C62.1116 208 61.1996 205.12 60.3836 202.48C60.3539 202.378 60.285 202.292 60.1919 202.241C60.0989 202.19 59.9895 202.178 59.8876 202.208C59.7858 202.238 59.6999 202.307 59.6489 202.4C59.5979 202.493 59.5859 202.602 59.6156 202.704C62.4636 214.48 68.6876 232.864 75.6156 245.392C75.6659 245.477 75.7472 245.54 75.8426 245.567C75.9381 245.594 76.0402 245.583 76.1276 245.536C76.7516 245.2 76.4476 245.728 71.6956 234.336C78.2236 232.816 92.9596 229.2 92.9596 229.2C94.1756 232.192 96.8316 239.168 96.8316 239.168C90.4316 240.944 84.7196 242.56 78.9916 244.288C78.4956 244.448 78.7196 245.264 79.2156 245.136C81.8396 244.496 150.32 226.512 154 225.504C154.109 225.454 154.198 225.367 154.25 225.258C154.301 225.149 154.313 225.025 154.282 224.908C154.252 224.792 154.181 224.689 154.082 224.62C153.984 224.55 153.864 224.518 153.744 224.528L150.88 225.184C149.536 221.04 149.28 220.608 147.264 215.168C148.272 214.896 148.336 214.928 148.448 214.704C148.494 214.623 148.515 214.53 148.509 214.437C148.503 214.343 148.47 214.254 148.414 214.179C148.358 214.104 148.281 214.048 148.194 214.016C148.106 213.984 148.011 213.978 147.92 214L146.896 214.256C145.408 210.608 143.808 207.056 142 203.424C163.408 197.968 162.4 198.48 162.624 198.112C162.675 198.031 162.7 197.935 162.697 197.839C162.694 197.743 162.661 197.65 162.604 197.572C162.548 197.495 162.469 197.436 162.378 197.404C162.287 197.372 162.189 197.368 162.096 197.392C162.096 197.392 148.944 200.448 141.424 202.288C139.824 199.088 138.112 195.984 136.624 193.472C148.448 190.672 153.856 189.472 164.928 187.072C169.216 194.416 168.944 195.072 169.584 194.656C169.668 194.609 169.732 194.532 169.765 194.441C169.797 194.35 169.795 194.25 169.76 194.16C168.675 191.649 167.446 189.202 166.08 186.832C176 184.672 192.736 181.392 192.736 181.392ZM109.28 200.08C109.968 201.28 112.096 204.976 114.288 209.152C103.984 211.92 88.8636 216.192 88.8636 216.192C86.5596 211.152 84.7196 207.632 84.0636 206.496C87.5516 205.568 104 201.424 109.28 200.08ZM115.584 208.816C113.28 204.464 111.088 200.816 110.48 199.776C121.68 196.96 135.408 193.696 135.408 193.696C135.872 194.512 138.064 198.496 140.208 202.56C132 204.56 123.52 206.72 115.584 208.816ZM109.744 198.592C107.888 195.6 106.912 194.016 104.768 190.864C106.832 190.368 118.112 187.664 130.368 184.976C131.136 186.272 131.968 187.616 134.8 192.496C127.184 194.272 120 196 109.744 198.592ZM114.976 210.48C116.288 212.976 118.272 217.008 119.984 220.848C78.7036 231.264 120.448 220.72 93.6316 227.568C92.3036 224.144 90.8476 220.64 89.4076 217.392L114.976 210.48ZM121.184 220.544C119.584 216.864 117.744 212.928 116.288 210.128C126.448 207.408 132.88 205.696 140.704 203.728C142.304 206.928 143.744 209.984 145.712 214.512C141.36 215.52 126.4 219.2 121.184 220.544ZM135.888 192.208C131.632 185.28 132.576 186.992 131.088 184.784C138.16 183.184 157.28 179.136 159.68 178.656C161.136 180.928 162.704 183.328 164.176 185.872C155.2 187.808 143.872 190.4 135.888 192.208ZM103.888 191.072C104.704 192.448 105.488 193.808 108.56 198.896C98.8316 201.424 86.9276 204.56 83.5516 205.504C81.8396 202.304 81.0236 200.832 78.7516 197.136C89.2156 194.56 101.168 191.712 104 191.072H103.888ZM88.0796 217.744C89.4396 220.784 90.6076 223.472 92.3996 227.872C92.3996 227.872 77.9996 231.696 71.3596 233.52C69.8716 229.76 68.6236 226.576 67.4236 223.328L88.0796 217.744ZM99.2796 227.568C99.2971 227.576 99.3162 227.581 99.3356 227.581C99.355 227.581 99.3742 227.576 99.3916 227.568H99.9196L120.4 222.304C121.792 225.504 123.2 229.008 124.352 231.904C112.912 234.976 100.096 238.304 97.4876 239.008C96.4636 235.808 95.4236 232.832 93.9676 228.976C99.9676 227.36 99.0716 227.568 99.2956 227.568H99.2796ZM125.28 231.552C123.84 227.152 123.2 225.568 121.68 221.808C121.68 221.808 142.16 216.48 146.08 215.408C148.736 221.808 149.584 224.064 149.984 225.136C150.208 225.6 151.104 224.624 125.296 231.552H125.28ZM228.368 185.024C239.472 183.168 249.408 181.824 259.568 180.64C262.016 183.488 264.032 186.048 266.288 189.072C256.16 190.352 245.584 192.016 233.104 194.304C231.552 190.896 230.048 187.936 228.384 185.024H228.368ZM227.696 183.872C226.096 180.992 224.496 178.704 222.672 176.08C234.256 174.192 242.32 173.088 251.376 171.856C253.999 174.421 256.518 177.089 258.928 179.856C249.36 180.8 239.136 182.096 227.712 183.872H227.696ZM188.608 173.12C197.936 171.52 206.56 170.064 215.808 168.736C217.872 171.36 218.896 172.688 220.608 175.232C211.168 176.736 203.6 177.984 193.248 180.032C191.664 177.392 190.24 175.312 188.624 173.12H188.608ZM221.392 176.32C223.123 178.862 224.762 181.467 226.304 184.128C215.792 185.728 208.256 187.184 198.704 189.264C197.104 186.352 195.648 183.76 194.016 181.168C199.408 180.112 211.552 177.92 221.408 176.288L221.392 176.32ZM222.032 175.056C221.664 175.056 221.632 174.128 216.752 168.656C227.248 167.184 236.304 166.192 244.432 165.648C246.464 167.248 248.496 169.12 250.624 171.168C243.824 171.776 225.696 174.4 222.048 175.024L222.032 175.056ZM192 180.24C176.352 183.28 165.392 185.632 165.392 185.632C163.931 183.157 162.329 180.769 160.592 178.48C169.888 176.576 178.752 174.88 187.664 173.296C189.376 176 190.4 177.6 192 180.24ZM67.1996 222.576C66.0156 219.376 64.8476 216.032 63.4876 211.968L82.9916 206.8C83.4396 207.712 85.5676 212 87.6156 216.56C77.5196 219.52 90.6396 215.6 67.1996 222.576Z" fill="#362D2E"/>
<path d="M312 228.8C310.4 219.744 298.096 203.808 292.448 196.256C284.448 185.616 269.728 166.56 259.744 158.672C257 156.348 253.686 154.796 250.144 154.176C255.152 151.632 254.752 146.336 254.656 140.64C264.851 141.242 275.069 139.962 284.8 136.864C287.632 135.856 290.288 134.656 291.536 131.2C293.136 126.528 295.6 100.512 296.16 92.544L310.096 89.936C310.2 89.915 310.295 89.864 310.371 89.7895C310.446 89.7149 310.498 89.6199 310.52 89.5162C310.542 89.4125 310.534 89.3047 310.495 89.2058C310.457 89.107 310.39 89.0216 310.304 88.96C310.032 88.784 311.136 88.64 296.24 91.424C296.934 82.7171 297.159 73.9791 296.912 65.248C297.424 60.304 288.32 57.808 284.112 56.928C286.416 49.216 288.032 43.168 289.568 38.16C289.745 37.6078 289.805 37.0247 289.744 36.448C288.976 29.888 287.648 27.808 287.872 27.056C287.872 26.88 289.104 22.464 289.344 21.68C289.584 20.896 289.712 20.512 289.232 20.08C288.874 19.842 288.471 19.6788 288.048 19.6C287.905 19.5372 287.75 19.5067 287.594 19.5109C287.438 19.515 287.285 19.5537 287.146 19.6241C287.007 19.6944 286.885 19.7948 286.789 19.9179C286.693 20.041 286.626 20.1838 286.592 20.336V20.48C286.592 20.48 284.992 25.696 284.8 26.72C282.227 28.5583 279.932 30.7568 277.984 33.248C277.68 33.776 271.76 53.232 271.088 55.456C268.641 55.36 266.191 55.36 263.744 55.456C262.144 50.656 260.656 45.856 258.624 40.752C258.89 40.3541 258.991 39.8691 258.908 39.398C258.824 38.927 258.562 38.5065 258.176 38.224C258.31 37.8029 258.292 37.3481 258.126 36.9388C257.959 36.5295 257.654 36.1916 257.264 35.984C257.401 35.5003 257.346 34.9825 257.11 34.5384C256.875 34.0943 256.477 33.7582 256 33.6C255.788 30.6199 255.068 27.6979 253.872 24.96C252.608 21.184 241.52 24.4 242.48 28.272C243.196 31.1238 244.227 33.8873 245.552 36.512C245.398 36.707 245.285 36.9309 245.22 37.1705C245.154 37.41 245.137 37.6603 245.17 37.9064C245.203 38.1526 245.285 38.3897 245.411 38.6037C245.537 38.8176 245.705 39.0041 245.904 39.152C245.718 39.5529 245.679 40.0062 245.793 40.433C245.907 40.8598 246.167 41.2332 246.528 41.488C246.439 41.7547 246.407 42.0374 246.435 42.3174C246.463 42.5973 246.55 42.8681 246.691 43.1117C246.832 43.3553 247.023 43.5662 247.251 43.7304C247.479 43.8946 247.74 44.0083 248.016 44.064C248.016 44.064 250.528 52.544 251.824 56.656C249.211 57.0728 246.625 57.6445 244.08 58.368C241.488 47.008 238.448 35.76 235.024 24.928C233.28 19.408 230.672 11.104 214.4 12C153.297 15.463 92.5893 24.0261 32.912 37.6C16.512 41.392 13.712 50.608 14.32 65.232C15.6602 91.1571 18.6583 116.97 23.296 142.512L8.12803 145.344C8.01706 145.371 7.92061 145.439 7.8584 145.535C7.79619 145.631 7.77293 145.747 7.79336 145.859C7.81379 145.972 7.87638 146.072 7.96833 146.14C8.06027 146.208 8.17463 146.238 8.28803 146.224L23.424 143.408C27.456 165.36 31.984 182.112 36.224 190.576C38.144 194.464 40.368 196.192 43.824 196.416C42.544 197.792 40.624 201.312 42.592 209.216C45.92 223.072 55.76 249.552 62.976 266.144C72.576 288.208 76.48 294.304 102.976 288.416C105.904 287.776 157.12 276.768 179.92 271.776C183.912 275.003 188.593 277.269 193.6 278.4C194.073 288.366 195.738 298.239 198.56 307.808C198.575 307.858 198.599 307.905 198.632 307.946C198.665 307.987 198.706 308.021 198.752 308.047C198.798 308.072 198.848 308.088 198.901 308.094C198.953 308.099 199.006 308.095 199.056 308.08C199.106 308.065 199.153 308.041 199.194 308.008C199.235 307.975 199.27 307.934 199.295 307.888C199.32 307.842 199.336 307.792 199.342 307.739C199.347 307.687 199.343 307.634 199.328 307.584C198.224 302.032 197.376 298.96 194.784 277.904C194.768 277.8 194.721 277.704 194.65 277.627C194.579 277.55 194.486 277.496 194.384 277.472C189.306 276.287 184.566 273.956 180.528 270.656C165.216 258.304 172.4 245.312 156.16 222.256C153.424 218.368 151.056 215.008 151.6 213.056C151.699 212.745 151.869 212.462 152.097 212.229C152.325 211.996 152.604 211.819 152.912 211.712C154.665 211.283 156.51 211.447 158.16 212.176C163.12 213.936 166.624 217.584 169.456 220.528C171.056 222.128 174.128 225.696 175.504 223.904C176.88 222.112 175.088 214.032 168.928 206.304C166.24 202.928 165.072 200.432 165.456 198.864C166.336 195.344 174.4 196.64 180.336 202.368C188.656 210.368 188.176 224.768 192.48 221.84C194.992 220.24 190.784 207.872 186.288 203.152C183.568 200.336 180.608 196.192 184.112 194.464C188.128 192.496 193.712 195.344 197.44 199.04C202.772 204.715 206.96 211.364 209.776 218.624C209.829 218.727 209.918 218.808 210.026 218.85C210.135 218.893 210.255 218.895 210.364 218.856C210.473 218.817 210.565 218.739 210.622 218.638C210.678 218.536 210.696 218.418 210.672 218.304C208.919 213.281 206.457 208.534 203.36 204.208C216.864 203.472 226.512 218.336 231.072 232.64C231.114 232.742 231.187 232.827 231.282 232.884C231.376 232.941 231.486 232.966 231.596 232.955C231.705 232.944 231.808 232.898 231.89 232.824C231.971 232.75 232.027 232.652 232.048 232.544C238.944 184.8 252.848 215.12 245.312 248C243.736 255.892 240.573 263.382 236.016 270.016C236.016 270.464 236.016 270.016 243.008 279.376C263.712 306.752 261.504 308 262.608 307.44C262.715 307.394 262.8 307.308 262.845 307.201C262.89 307.093 262.891 306.972 262.848 306.864C257.648 296 244.976 279.28 237.392 270.064C240.104 266.262 242.259 262.092 243.792 257.68C279.536 249.52 300.256 244.256 305.424 242.064C310.592 239.872 313.088 235.2 312 228.8ZM290.144 130.72C289.072 133.632 286.832 134.608 284.24 135.52C274.66 138.486 264.611 139.642 254.608 138.928C253.937 117.44 251.562 96.0398 247.504 74.928C264.56 78.032 290.704 74.928 295.952 67.472C296.32 87.28 291.568 126.752 290.144 130.72ZM269.776 74.544C276.784 52.016 281.872 36.272 281.872 36.272C282.253 36.729 282.757 37.0669 283.324 37.2456C283.891 37.4243 284.498 37.4362 285.072 37.28C284.272 39.84 281.456 49.456 273.568 74.176C272.128 74.336 271.232 74.432 269.776 74.544ZM295.76 65.136C295.184 70.08 281.84 72.832 278.944 73.376C280.544 68.24 282.144 63.04 283.744 57.936C286.272 58.464 296.256 60.8 295.76 65.136ZM277.76 73.6C276.736 73.776 275.728 73.92 274.704 74.048C278.64 61.936 283.008 48.224 285.904 37.632C286.277 37.973 286.745 38.1911 287.246 38.2569C287.747 38.3228 288.256 38.2331 288.704 38C284.912 50.64 281.728 61.344 277.76 73.6ZM284.96 27.504C285.576 27.9178 286.317 28.1044 287.056 28.032C287.884 30.9018 288.478 33.8341 288.832 36.8C288.422 37.1463 287.896 37.3237 287.36 37.296C286.096 37.2 286.096 36.096 285.584 36.272C284.956 36.4715 284.281 36.4607 283.66 36.2413C283.039 36.0218 282.507 35.6056 282.144 35.056C281.888 34.576 281.184 35.056 279.888 34.608C279.378 34.4349 278.931 34.1114 278.608 33.68C280.451 31.3522 282.586 29.2711 284.96 27.488V27.504ZM278.272 34.72C278.639 35.1119 279.091 35.4139 279.593 35.6026C280.095 35.7913 280.634 35.8616 281.168 35.808C277.232 46.624 272.464 61.664 269.168 73.664L267.824 69.232L278.272 34.72ZM270.608 56.48C269.44 60.448 268.496 63.664 267.408 67.76C266.08 63.392 264.912 59.6 263.92 56.56C266.624 56.4 268.592 56.416 270.608 56.48ZM268.56 74.672H266.176L255.776 42.8C256.528 42.4322 257.223 41.958 257.84 41.392C259.664 46.672 268.096 73.28 268.56 74.672ZM243.376 27.968C242.912 26.16 247.328 23.872 250.656 24.064C254.88 24.352 252.944 27.36 248.752 28.592C246.864 29.136 243.856 29.328 243.376 27.968ZM243.888 29.664C246.592 30.816 251.888 29.264 253.488 26.736C254.187 29.0691 254.721 31.4483 255.088 33.856C254.16 35.0115 252.859 35.8088 251.408 36.112C249.801 36.5825 248.101 36.643 246.464 36.288C245.438 34.1489 244.577 31.9345 243.888 29.664ZM246.128 38.048C246.046 37.9129 246.003 37.758 246.003 37.6C246.003 37.442 246.046 37.2871 246.128 37.152C247.976 37.6585 249.93 37.6252 251.76 37.056C253.383 36.6519 254.825 35.7171 255.856 34.4C259.104 36.672 248 40.896 246.128 38.048ZM246.624 39.904C246.6 39.7825 246.6 39.6575 246.624 39.536C249.312 40.496 254.816 39.04 256.672 36.704C258.272 37.824 256.208 39.296 254.448 40.112C252.598 40.9642 250.558 41.3225 248.528 41.152C247.36 41.04 246.72 40.64 246.624 39.904ZM247.392 42.656C247.295 42.5429 247.232 42.4052 247.21 42.2582C247.187 42.1112 247.206 41.9609 247.264 41.824C250.016 42.8 255.808 41.312 257.616 38.944C259.216 40.4 255.344 42.368 253.168 42.992C250.672 43.68 248.128 43.536 247.392 42.656ZM248.896 44.256C249.963 44.3693 251.04 44.3316 252.096 44.144L261.872 74.896H258.912C255.696 64.944 251.376 51.744 248.896 44.208V44.256ZM252.096 57.68C254.464 65.12 256.112 69.84 257.84 74.816C254.283 74.7016 250.738 74.3381 247.232 73.728C246.368 69.12 245.36 64.32 244.272 59.424C246.852 58.6593 249.475 58.0502 252.128 57.6L252.096 57.68ZM124.272 24.8C124.715 24.8 125.148 24.9314 125.517 25.1775C125.885 25.4236 126.172 25.7735 126.342 26.1828C126.511 26.5921 126.555 27.0425 126.469 27.477C126.383 27.9115 126.169 28.3107 125.856 28.6239C125.543 28.9372 125.144 29.1505 124.709 29.237C124.275 29.3234 123.824 29.279 123.415 29.1095C123.006 28.94 122.656 28.6529 122.41 28.2845C122.163 27.9161 122.032 27.483 122.032 27.04C122.032 26.4459 122.268 25.8762 122.688 25.4561C123.108 25.036 123.678 24.8 124.272 24.8ZM25.936 51.84C92.56 36.8 162.624 26.72 223.264 23.408C233.6 52.864 242.736 119.408 243.056 145.872C179.312 159.28 108.512 171.104 46.016 181.552C35.0309 139.089 28.3043 95.637 25.936 51.84ZM299.536 234.88C291.152 237.408 273.408 241.68 246.736 247.52C250.544 230.208 248.688 214.224 244.656 208.704C244.312 208.128 243.849 207.632 243.297 207.251C242.744 206.87 242.117 206.613 241.456 206.496C235.056 205.84 232.176 224.24 231.408 230.128C226.512 215.856 216.544 201.6 202.736 203.2C201.409 201.411 199.966 199.711 198.416 198.112C190.416 190.112 182.096 192 181.408 196C180.928 198.8 183.744 202.208 185.472 204C189.392 208.128 193.472 219.904 191.872 220.832C189.488 222.256 188.992 209.024 181.168 201.488C176.576 197.008 169.968 194.608 166.432 196.128C161.936 198.048 164.832 203.232 167.936 207.072C174.736 215.68 175.52 223.504 174.032 222.816C171.872 221.824 166.656 213.68 158.624 210.848C156.662 209.963 154.446 209.815 152.384 210.432C145.984 213.168 155.424 222.256 159.408 229.632C167.216 244.224 166.768 254.336 172.208 263.232C143.184 269.2 121.712 273.52 98.096 277.856C86.528 279.936 77.392 281.584 72.608 273.76C64.608 260.08 48.16 218.896 44.944 208.544C43.344 203.52 42.976 197.344 48.032 195.744C102.976 179.28 190.192 164.88 227.44 158.736C247.616 155.424 245.6 155.536 247.392 155.536C251.502 155.678 255.445 157.193 258.592 159.84C267.92 167.408 282.8 186.56 290.848 197.296C304.656 215.84 308.848 222.752 308.784 226.912C308.8 231.504 303.872 233.6 299.552 234.88H299.536Z" fill="#362D2E"/>
</svg>
