<svg width="49" height="48" viewBox="0 0 49 48" fill="none" xmlns="http://www.w3.org/2000/svg">
<rect x="0.75" y="0.25" width="47.5" height="47.5" rx="23.75" fill="white"/>
<rect x="0.75" y="0.25" width="47.5" height="47.5" rx="23.75" stroke="#F2F2F2" stroke-width="0.5"/>
<path d="M13.0857 18.0133C14.195 15.8043 15.8968 13.9473 18.0009 12.6499C20.105 11.3525 22.5284 10.6658 25.0003 10.6666C28.5937 10.6666 31.6123 11.988 33.9203 14.14L30.0977 17.964C28.715 16.6426 26.9577 15.9693 25.0003 15.9693C21.527 15.9693 18.587 18.316 17.5403 21.4666C17.2737 22.2666 17.1217 23.12 17.1217 24C17.1217 24.88 17.2737 25.7333 17.5403 26.5333C18.5883 29.6853 21.527 32.0306 25.0003 32.0306C26.7937 32.0306 28.3203 31.5573 29.515 30.7573C30.2076 30.3013 30.8005 29.7096 31.2579 29.018C31.7154 28.3263 32.0278 27.5491 32.1763 26.7333H25.0003V21.576H37.5577C37.715 22.448 37.8003 23.3573 37.8003 24.3026C37.8003 28.364 36.347 31.7826 33.8243 34.1026C31.619 36.14 28.6003 37.3333 25.0003 37.3333C23.2492 37.334 21.515 36.9896 19.8971 36.3198C18.2791 35.65 16.8089 34.6679 15.5707 33.4296C14.3324 32.1914 13.3503 30.7212 12.6805 29.1032C12.0107 27.4852 11.6663 25.7511 11.667 24C11.667 21.848 12.1817 19.8133 13.0857 18.0133Z" fill="#524344"/>
</svg>
