<svg width="22" height="22" viewBox="0 0 22 22" fill="none" xmlns="http://www.w3.org/2000/svg">
<path d="M11 21C13.6522 21 16.1957 19.9464 18.0711 18.0711C19.9464 16.1957 21 13.6522 21 11C21 8.34784 19.9464 5.8043 18.0711 3.92893C16.1957 2.05357 13.6522 1 11 1C8.34784 1 5.8043 2.05357 3.92893 3.92893C2.05357 5.8043 1 8.34784 1 11C1 13.6522 2.05357 16.1957 3.92893 18.0711C5.8043 19.9464 8.34784 21 11 21Z" stroke="#001434" stroke-width="1.5" stroke-linecap="round" stroke-linejoin="round"/>
<path d="M8 7.33513C7.99973 6.84184 8.10896 6.35464 8.31979 5.90867C8.53062 5.4627 8.83781 5.06909 9.21919 4.75622C9.60057 4.44335 10.0466 4.21903 10.5252 4.09944C11.0038 3.97985 11.5029 3.96797 11.9867 4.06465C12.4702 4.161 12.9264 4.36329 13.3225 4.657C13.7185 4.95071 14.0445 5.32852 14.2771 5.76328C14.5097 6.19803 14.6431 6.67893 14.6676 7.17138C14.6921 7.66383 14.6073 8.15559 14.419 8.61132C14.1665 9.22066 13.7389 9.74138 13.1903 10.1076C12.6417 10.4738 11.9967 10.669 11.3371 10.6685V12.8913M11.3333 17.257C11.207 17.257 11.0859 17.2069 10.9966 17.1176C10.9073 17.0283 10.8571 16.9071 10.8571 16.7808C10.8571 16.6545 10.9073 16.5334 10.9966 16.4441C11.0859 16.3548 11.207 16.3047 11.3333 16.3047C11.4596 16.3047 11.5807 16.3548 11.6701 16.4441C11.7594 16.5334 11.8095 16.6545 11.8095 16.7808C11.8095 16.9071 11.7594 17.0283 11.6701 17.1176C11.5807 17.2069 11.4596 17.257 11.3333 17.257Z" stroke="#001434" stroke-width="1.5" stroke-linecap="round" stroke-linejoin="round"/>
</svg>
