<svg width="22" height="22" viewBox="0 0 22 22" fill="none" xmlns="http://www.w3.org/2000/svg">
<path d="M11 21C9.62371 21 8.32741 20.737 7.11112 20.2111C5.89482 19.6844 4.83556 18.9696 3.93334 18.0667C3.03112 17.1637 2.3163 16.1044 1.78889 14.8889C1.26149 13.6733 0.998525 12.377 1.00001 11C1.00001 9.61926 1.26297 8.32185 1.78889 7.10778C2.31556 5.89296 3.03038 4.83481 3.93334 3.93333C4.8363 3.03185 5.89556 2.31704 7.11112 1.78889C8.32741 1.26296 9.62371 1 11 1C12.3807 1 13.6782 1.26296 14.8922 1.78889C16.107 2.31556 17.1656 3.03037 18.0678 3.93333C18.97 4.8363 19.6844 5.89444 20.2111 7.10778C20.737 8.32259 21 9.62 21 11C21 12.3763 20.737 13.6726 20.2111 14.8889C19.6844 16.1052 18.9696 17.1644 18.0667 18.0667C17.1637 18.9689 16.1056 19.6837 14.8922 20.2111C13.6789 20.7385 12.3815 21.0015 11 21ZM11 19.8978C11.6519 19.06 12.1896 18.2374 12.6133 17.43C13.0363 16.6226 13.3804 15.7189 13.6456 14.7189H8.35445C8.64852 15.7752 8.99963 16.707 9.40778 17.5144C9.81667 18.3218 10.3474 19.1163 11 19.8978ZM9.58556 19.7311C9.06704 19.12 8.59371 18.3644 8.16556 17.4644C7.73741 16.5652 7.41889 15.6496 7.21 14.7178H2.94889C3.58593 16.0993 4.48852 17.2326 5.65667 18.1178C6.82556 19.0022 8.13519 19.54 9.58556 19.7311ZM12.4144 19.7311C13.8648 19.54 15.1744 19.0022 16.3433 18.1178C17.5115 17.2326 18.4141 16.0993 19.0511 14.7178H14.7911C14.5096 15.6637 14.1552 16.5863 13.7278 17.4856C13.2996 18.3856 12.8619 19.1348 12.4144 19.7311ZM2.49556 13.6078H6.97889C6.89445 13.1515 6.83519 12.707 6.80112 12.2744C6.76556 11.8426 6.74778 11.4178 6.74778 11C6.74778 10.5822 6.76519 10.1574 6.8 9.72555C6.83482 9.2937 6.89408 8.84926 6.97778 8.39222H2.49667C2.37593 8.77741 2.28149 9.19703 2.21334 9.65111C2.14519 10.1044 2.11112 10.5541 2.11112 11C2.11112 11.4459 2.14482 11.8959 2.21223 12.35C2.27964 12.8041 2.37408 13.223 2.49556 13.6067M8.09 13.6067H13.91C13.9944 13.1511 14.0537 12.7141 14.0878 12.2956C14.1233 11.8778 14.1411 11.4459 14.1411 11C14.1411 10.5541 14.1237 10.1222 14.0889 9.70444C14.0541 9.28666 13.9948 8.84963 13.9111 8.39333H8.08889C8.00519 8.84889 7.94593 9.28592 7.91112 9.70444C7.8763 10.1222 7.85889 10.5541 7.85889 11C7.85889 11.4459 7.8763 11.8778 7.91112 12.2956C7.94593 12.7133 8.0063 13.1504 8.09 13.6067ZM15.0222 13.6067H19.5044C19.6252 13.2222 19.7196 12.8033 19.7878 12.35C19.8552 11.8959 19.8889 11.4459 19.8889 11C19.8889 10.5541 19.8552 10.1041 19.7878 9.65C19.7204 9.19592 19.6259 8.77704 19.5044 8.39333H15.0211C15.1056 8.84889 15.1648 9.29296 15.1989 9.72555C15.2344 10.1581 15.2522 10.583 15.2522 11C15.2522 11.417 15.2348 11.8418 15.2 12.2744C15.1652 12.707 15.1059 13.1515 15.0222 13.6078M14.7911 7.28222H19.0511C18.4 5.87185 17.5082 4.73852 16.3756 3.88222C15.243 3.02593 13.9226 2.48111 12.4144 2.24778C12.933 2.93 13.3993 3.71037 13.8133 4.58889C14.2274 5.46667 14.5533 6.36444 14.7911 7.28222ZM8.35445 7.28222H13.6456C13.3522 6.23926 12.9904 5.2963 12.56 4.45333C12.1296 3.61037 11.6096 2.82667 11 2.10222C10.3904 2.82593 9.87037 3.60963 9.44 4.45333C9.00963 5.29704 8.64704 6.24 8.35445 7.28222ZM2.95001 7.28222H7.21C7.44778 6.36518 7.77371 5.46741 8.18778 4.58889C8.60186 3.71037 9.06815 2.93 9.58667 2.24778C8.06519 2.48185 6.74149 3.03 5.61556 3.89222C4.48963 4.75593 3.60075 5.88555 2.94889 7.28111" fill="#001434"/>
<path d="M2.49556 13.6078H6.97889C6.89445 13.1515 6.83519 12.707 6.80112 12.2744C6.76556 11.8426 6.74778 11.4178 6.74778 11C6.74778 10.5822 6.76519 10.1574 6.8 9.72555C6.83482 9.2937 6.89408 8.84926 6.97778 8.39222H2.49667C2.37593 8.77741 2.28149 9.19703 2.21334 9.65111C2.14519 10.1044 2.11112 10.5541 2.11112 11C2.11112 11.4459 2.14482 11.8959 2.21223 12.35C2.27964 12.8041 2.37408 13.223 2.49556 13.6067M15.0222 13.6067H19.5044C19.6252 13.2222 19.7196 12.8033 19.7878 12.35C19.8552 11.8959 19.8889 11.4459 19.8889 11C19.8889 10.5541 19.8552 10.1041 19.7878 9.65C19.7204 9.19592 19.6259 8.77704 19.5044 8.39333H15.0211C15.1056 8.84889 15.1648 9.29296 15.1989 9.72555C15.2344 10.1581 15.2522 10.583 15.2522 11C15.2522 11.417 15.2348 11.8418 15.2 12.2744C15.1652 12.707 15.1059 13.1515 15.0222 13.6078M2.95001 7.28222H7.21C7.44778 6.36518 7.77371 5.46741 8.18778 4.58889C8.60186 3.71037 9.06815 2.93 9.58667 2.24778C8.06519 2.48185 6.74149 3.03 5.61556 3.89222C4.48963 4.75593 3.60075 5.88555 2.94889 7.28111M11 21C9.62371 21 8.32741 20.737 7.11112 20.2111C5.89482 19.6844 4.83556 18.9696 3.93334 18.0667C3.03112 17.1637 2.3163 16.1044 1.78889 14.8889C1.26149 13.6733 0.998525 12.377 1.00001 11C1.00001 9.61926 1.26297 8.32185 1.78889 7.10778C2.31556 5.89296 3.03038 4.83481 3.93334 3.93333C4.8363 3.03185 5.89556 2.31704 7.11112 1.78889C8.32741 1.26296 9.62371 1 11 1C12.3807 1 13.6782 1.26296 14.8922 1.78889C16.107 2.31556 17.1656 3.03037 18.0678 3.93333C18.97 4.8363 19.6844 5.89444 20.2111 7.10778C20.737 8.32259 21 9.62 21 11C21 12.3763 20.737 13.6726 20.2111 14.8889C19.6844 16.1052 18.9696 17.1644 18.0667 18.0667C17.1637 18.9689 16.1056 19.6837 14.8922 20.2111C13.6789 20.7385 12.3815 21.0015 11 21ZM11 19.8978C11.6519 19.06 12.1896 18.2374 12.6133 17.43C13.0363 16.6226 13.3804 15.7189 13.6456 14.7189H8.35445C8.64852 15.7752 8.99963 16.707 9.40778 17.5144C9.81667 18.3218 10.3474 19.1163 11 19.8978ZM9.58556 19.7311C9.06704 19.12 8.59371 18.3644 8.16556 17.4644C7.73741 16.5652 7.41889 15.6496 7.21 14.7178H2.94889C3.58593 16.0993 4.48852 17.2326 5.65667 18.1178C6.82556 19.0022 8.13519 19.54 9.58556 19.7311ZM12.4144 19.7311C13.8648 19.54 15.1744 19.0022 16.3433 18.1178C17.5115 17.2326 18.4141 16.0993 19.0511 14.7178H14.7911C14.5096 15.6637 14.1552 16.5863 13.7278 17.4856C13.2996 18.3856 12.8619 19.1348 12.4144 19.7311ZM8.09 13.6067H13.91C13.9944 13.1511 14.0537 12.7141 14.0878 12.2956C14.1233 11.8778 14.1411 11.4459 14.1411 11C14.1411 10.5541 14.1237 10.1222 14.0889 9.70444C14.0541 9.28666 13.9948 8.84963 13.9111 8.39333H8.08889C8.00519 8.84889 7.94593 9.28592 7.91112 9.70444C7.8763 10.1222 7.85889 10.5541 7.85889 11C7.85889 11.4459 7.8763 11.8778 7.91112 12.2956C7.94593 12.7133 8.0063 13.1504 8.09 13.6067ZM14.7911 7.28222H19.0511C18.4 5.87185 17.5081 4.73852 16.3756 3.88222C15.243 3.02593 13.9226 2.48111 12.4144 2.24778C12.933 2.93 13.3993 3.71037 13.8133 4.58889C14.2274 5.46667 14.5533 6.36444 14.7911 7.28222ZM8.35445 7.28222H13.6456C13.3522 6.23926 12.9904 5.29629 12.56 4.45333C12.1296 3.61037 11.6096 2.82667 11 2.10222C10.3904 2.82593 9.87037 3.60963 9.44 4.45333C9.00963 5.29704 8.64704 6.24 8.35445 7.28222Z" stroke="#001434" stroke-width="0.3"/>
</svg>
