<svg width="56" height="56" viewBox="0 0 56 56" fill="none" xmlns="http://www.w3.org/2000/svg">
<path d="M35 14C35 10.134 31.866 7 28 7C24.134 7 21 10.134 21 14V25.6667C21 29.5327 24.134 32.6667 28 32.6667C31.866 32.6667 35 29.5327 35 25.6667V14Z" stroke="#ADB5BD" stroke-width="2.5" stroke-linecap="round" stroke-linejoin="round"/>
<path d="M44.3337 25.6667C44.3337 27.8117 43.9112 29.9356 43.0904 31.9172C42.2695 33.8989 41.0664 35.6995 39.5497 37.2162C38.033 38.7328 36.2325 39.936 34.2508 40.7568C32.2692 41.5776 30.1453 42.0001 28.0003 42.0001M28.0003 42.0001C25.8554 42.0001 23.7315 41.5776 21.7498 40.7568C19.7682 39.936 17.9676 38.7328 16.4509 37.2162C14.9342 35.6995 13.7311 33.8989 12.9103 31.9172C12.0895 29.9356 11.667 27.8117 11.667 25.6667M28.0003 42.0001V49.0001" stroke="#ADB5BD" stroke-width="2.5" stroke-linecap="round" stroke-linejoin="round"/>
</svg>
