<svg width="393" height="852" viewBox="0 0 393 852" fill="none" xmlns="http://www.w3.org/2000/svg">
<g clip-path="url(#clip0_34_374)">
<rect width="393" height="852" fill="#FBF9F9"/>
<path d="M902 406.692C767.5 366.692 651.5 96.1924 422 121.692C346 130.137 259.5 219.192 236.5 255.192C232.5 259.692 227.5 257.192 228 251.692C228 246.692 237.276 206.849 236 199.192C235.5 196.192 233.5 194.192 231 194.192C227 194.192 225.5 199.192 220.5 198.692C212.5 198.192 206 164.692 195.5 164.692C185 164.692 181.5 197.192 170.5 198.692C164.5 199.51 161 192.781 156.5 195.692C147.228 201.692 169.5 255.192 160 257.192C150.5 259.192 138 225.692 127.5 225.692C120.5 225.692 123.5 237.692 119.5 240.192C115.5 242.692 88.5004 236.692 84.5004 242.692C80.5004 248.692 94.4279 268.692 92.5011 273.192C90.5744 277.692 78.1234 281.692 79.9995 289.192C81.8757 296.692 135 326.192 137.5 335.692C140.001 345.192 132 347.192 136.5 354.192C141 361.192 180.001 346.192 187.5 348.692C195 351.192 193.5 360.692 193.5 360.692M266.5 222.192C266.5 222.192 267 235.192 271.5 238.692C276 242.192 300 237.092 304 238.692C306.5 239.692 307.5 241.692 307.5 245.192C307.5 249.692 296.744 266.761 299.5 273.192C301 276.692 305.5 278.692 306.5 279.192C307.5 279.692 312.222 281.692 311 287.192C309.667 293.192 292.106 303.703 287.5 307.192C271 319.692 254.5 328.192 254.5 337.192C254.5 343.192 260.5 346.692 256 352.192C251.434 357.773 213.5 348.192 207 348.692C203.74 348.692 201 350.692 201 354.192C201 415.93 143.046 428.815 95 416.192C36 400.692 9.5 368.692 -123 360.692" stroke="#CC1316" stroke-width="2"/>
<path d="M-20 711.159C80.1667 726.159 305.1 715.159 403.5 551.159C501.9 387.159 444.5 641.493 403.5 789.159C358.333 755.493 260.7 721.559 231.5 855.159" stroke="#CC1316" stroke-width="2"/>
</g>
<defs>
<clipPath id="clip0_34_374">
<rect width="393" height="852" fill="white"/>
</clipPath>
</defs>
</svg>
