<svg width="18" height="20" viewBox="0 0 18 20" fill="none" xmlns="http://www.w3.org/2000/svg">
<path d="M4.60059 15.4001V13.1501M4.60059 13.1501V11.8001C4.60059 11.3762 4.60059 11.1638 4.73919 11.0315C4.87779 10.9001 5.10009 10.9001 5.54559 10.9001H6.17559C6.82809 10.9001 7.35729 11.4041 7.35729 12.0251C7.35729 12.6461 6.82809 13.1501 6.17559 13.1501H4.60059ZM17.2006 10.9001H16.0198C15.2773 10.9001 14.9056 10.9001 14.6752 11.1197C14.4448 11.3393 14.4448 11.693 14.4448 12.4004V13.1501M14.4448 13.1501V15.4001M14.4448 13.1501H16.4131M12.4756 13.1501C12.4756 14.3921 11.4181 15.4001 10.1131 15.4001C9.81879 15.4001 9.67209 15.4001 9.56139 15.3398C9.29949 15.1958 9.32559 14.9033 9.32559 14.6504V11.6498C9.32559 11.3969 9.29859 11.1044 9.56139 10.9604C9.67119 10.9001 9.81879 10.9001 10.1131 10.9001C11.4181 10.9001 12.4756 11.9081 12.4756 13.1501Z" stroke="#868E96" stroke-linecap="round" stroke-linejoin="round"/>
<path d="M11.8 19H7.9543C5.0203 19 3.5515 19 2.5327 18.2818C2.24276 18.0785 1.98361 17.8345 1.7632 17.5573C1 16.5979 1 15.2173 1 12.4543V10.1638C1 7.4971 1 6.1633 1.4221 5.0986C2.1007 3.3859 3.5353 2.0359 5.3551 1.3969C6.4855 1 7.9012 1 10.7362 1C12.3544 1 13.1644 1 13.8106 1.2268C14.8501 1.5922 15.67 2.3635 16.0579 3.3418C16.3 3.9502 16.3 4.7125 16.3 6.2362V8.2" stroke="#868E96" stroke-linecap="round" stroke-linejoin="round"/>
<path d="M1 10C1 9.20443 1.31604 8.44144 1.87859 7.87889C2.44114 7.31634 3.20413 7.0003 3.9997 7.0003C4.5991 7.0003 5.3056 7.1047 5.8879 6.949C6.14234 6.88053 6.3743 6.74637 6.56054 6.55997C6.74678 6.37358 6.88074 6.1415 6.949 5.887C7.1047 5.3047 7.0003 4.5982 7.0003 3.9988C7.00054 3.20339 7.31668 2.44063 7.87921 1.87827C8.44174 1.31592 9.20459 1 10 1" stroke="#868E96" stroke-linecap="round" stroke-linejoin="round"/>
</svg>
