<svg width="22" height="20" viewBox="0 0 22 20" fill="none" xmlns="http://www.w3.org/2000/svg">
<path d="M2 3.75V6H7.379C7.57753 5.99996 7.76794 5.9212 7.9085 5.781L9.9395 3.75L7.9085 1.719C7.76794 1.5788 7.57753 1.50004 7.379 1.5H4.25C3.65326 1.5 3.08097 1.73705 2.65901 2.15901C2.23705 2.58097 2 3.15326 2 3.75ZM0.5 3.75C0.5 2.75544 0.895088 1.80161 1.59835 1.09835C2.30161 0.395088 3.25544 0 4.25 0H7.379C7.97554 0.000525156 8.54745 0.237923 8.969 0.66L11.3105 3H17.75C18.7446 3 19.6984 3.39509 20.4016 4.09835C21.1049 4.80161 21.5 5.75544 21.5 6.75V10.6275C21.259 10.5427 21.0054 10.4996 20.75 10.5H20V6.75C20 6.15326 19.7629 5.58097 19.341 5.15901C18.919 4.73705 18.3467 4.5 17.75 4.5H11.3105L8.9705 6.84C8.76141 7.04935 8.51308 7.2154 8.23973 7.32866C7.96638 7.44191 7.67338 7.50013 7.3775 7.5H2V14.25C2 14.8467 2.23705 15.419 2.65901 15.841C3.08097 16.2629 3.65326 16.5 4.25 16.5H11.1275C11.2257 16.7767 11.377 17.0315 11.573 17.25C11.377 17.4685 11.2257 17.7233 11.1275 18H4.25C3.25544 18 2.30161 17.6049 1.59835 16.9016C0.895088 16.1984 0.5 15.2446 0.5 14.25V3.75ZM13.25 12C13.0511 12 12.8603 12.079 12.7197 12.2197C12.579 12.3603 12.5 12.5511 12.5 12.75C12.5 12.9489 12.579 13.1397 12.7197 13.2803C12.8603 13.421 13.0511 13.5 13.25 13.5H20.75C20.9489 13.5 21.1397 13.421 21.2803 13.2803C21.421 13.1397 21.5 12.9489 21.5 12.75C21.5 12.5511 21.421 12.3603 21.2803 12.2197C21.1397 12.079 20.9489 12 20.75 12H13.25ZM13.25 15C13.0511 15 12.8603 15.079 12.7197 15.2197C12.579 15.3603 12.5 15.5511 12.5 15.75C12.5 15.9489 12.579 16.1397 12.7197 16.2803C12.8603 16.421 13.0511 16.5 13.25 16.5H20.75C20.9489 16.5 21.1397 16.421 21.2803 16.2803C21.421 16.1397 21.5 15.9489 21.5 15.75C21.5 15.5511 21.421 15.3603 21.2803 15.2197C21.1397 15.079 20.9489 15 20.75 15H13.25ZM12.5 18.75C12.5 18.5511 12.579 18.3603 12.7197 18.2197C12.8603 18.079 13.0511 18 13.25 18H20.75C20.9489 18 21.1397 18.079 21.2803 18.2197C21.421 18.3603 21.5 18.5511 21.5 18.75C21.5 18.9489 21.421 19.1397 21.2803 19.2803C21.1397 19.421 20.9489 19.5 20.75 19.5H13.25C13.0511 19.5 12.8603 19.421 12.7197 19.2803C12.579 19.1397 12.5 18.9489 12.5 18.75Z" fill="#001434"/>
</svg>
