<svg width="320" height="320" viewBox="0 0 320 320" fill="none" xmlns="http://www.w3.org/2000/svg">
<path d="M161.408 145.6C161.168 152.688 163.216 147.952 164.336 144C165.936 138.032 166.144 125.824 159.712 122.256C154.096 119.152 148.816 122.256 144.928 126.304C147.524 129.005 149.534 132.214 150.832 135.728C156.192 132.4 161.6 138.048 161.408 145.6ZM163.2 83.648C162.224 80.224 164.592 78.24 164.528 77.584C164.352 75.792 161.104 79.904 162.464 83.984C162.576 84.416 163.28 84.144 163.2 83.648ZM118.912 85.984C119.232 86.496 118.656 93.392 119.296 93.568C119.936 93.744 124.256 86.432 124.672 86.016C125.088 85.6 133.248 88.112 133.616 87.488C133.984 86.864 128.576 83.216 128.816 82.688C129.056 82.16 132.896 77.408 132.496 76.992C132.096 76.576 126.096 78.144 125.216 78.416C124.336 78.688 118.912 72.4 118.544 72.56C118.176 72.72 118.784 80.112 118.544 80.432C118.304 80.752 111.472 83.376 111.6 83.728C111.728 84.08 118.624 85.456 118.912 85.984ZM40.7682 117.712C40.8962 118.448 40.4002 125.712 41.1842 125.184C41.9682 124.656 45.8082 117.952 46.5122 118.048C47.2162 118.144 56.6082 119.76 56.8482 119.248C57.0882 118.736 50.9122 113.968 50.9122 113.552C50.9122 113.136 53.8402 106.688 53.5042 106.784C51.3463 107.744 49.1408 108.593 46.8962 109.328C46.4962 109.184 41.0242 104.144 40.8322 104.24C40.6402 104.336 40.9762 112.064 40.8322 112.352C40.6882 112.64 34.4322 115.36 34.4322 115.76C34.4322 116.16 40.6242 117.024 40.7682 117.712ZM15.0402 134.624C15.7762 134.624 19.1682 128.464 19.8402 128.224C20.5122 127.984 27.9522 129.536 28.0802 129.008C28.2082 128.48 23.9202 123.968 23.9202 123.696C23.9202 123.424 27.6642 117.392 27.4882 117.2C27.3122 117.008 20.6722 119.28 20.2082 119.248C19.7442 119.216 15.4082 113.536 14.6722 113.968C13.9362 114.4 14.9442 121.968 14.8962 122.112C14.8482 122.256 7.85624 125.552 8.00024 126C8.14424 126.448 14.5442 127.392 14.8162 127.6C15.0882 127.808 14.3042 134.624 15.0402 134.624ZM92.1442 104.384C92.1442 105.04 97.2002 97.984 98.0162 96.528C98.2882 96.08 107.712 97.6 107.776 97.168C107.84 96.736 102.496 92.208 102.496 91.792C102.496 91.376 105.232 85.872 104.96 85.68C104.688 85.488 98.5122 88 97.9042 88C97.2962 88 91.5042 82.96 91.5042 83.2C91.5042 83.44 91.5042 90.336 91.3122 90.432C91.1202 90.528 83.7442 94.016 83.8882 94.176C84.3522 94.72 91.6322 96.032 91.8882 96.304C92.1442 96.576 91.5042 104.432 92.1442 104.384ZM65.8722 115.52C65.8722 115.824 71.4562 107.52 71.9522 107.376C72.4482 107.232 82.5602 108.496 82.6882 108.032C82.8162 107.568 76.4002 102.656 76.6242 102.16C76.8482 101.664 80.4642 95.616 79.8242 95.76C79.1842 95.904 72.9122 98.448 72.3202 98.688C71.7282 98.928 66.6722 92.8 66.4962 93.2C66.3202 93.6 66.4962 100.288 66.1762 100.544C65.8562 100.8 59.2002 104 59.3122 104.208C59.4242 104.416 65.2322 107.104 65.5042 107.408C65.7762 107.712 65.6002 115.824 65.8722 115.52ZM117.728 155.792L116 155.408C116.207 153.769 116.599 152.159 117.168 150.608C117.68 148.848 114.928 149.408 114.384 155.952C114.384 156.736 115.312 156.928 116.384 157.12C116.944 157.216 117.376 157.312 117.472 157.312C118.4 157.312 118.624 156 117.728 155.792ZM125.28 138.24C125.131 138.293 125.001 138.388 124.905 138.514C124.809 138.639 124.752 138.79 124.74 138.948C124.728 139.105 124.762 139.263 124.838 139.401C124.914 139.54 125.029 139.653 125.168 139.728C126.112 140.224 126.768 139.728 128.128 141.072C128.336 141.248 128.656 141.664 129.056 141.664C129.456 141.664 129.872 141.216 129.536 140.528C129.076 139.82 128.445 139.239 127.701 138.839C126.957 138.439 126.125 138.233 125.28 138.24ZM125.584 157.136C124.64 157.424 124.496 160.992 120.624 160.624C120.545 160.617 120.466 160.627 120.39 160.652C120.315 160.677 120.245 160.716 120.186 160.768C120.126 160.821 120.077 160.884 120.043 160.956C120.008 161.027 119.988 161.105 119.984 161.184C119.888 161.92 120.656 162 121.392 162C124.336 162 126.832 159.232 126.528 157.632C126.499 157.537 126.451 157.449 126.388 157.373C126.325 157.297 126.247 157.234 126.159 157.188C126.072 157.142 125.976 157.113 125.877 157.104C125.778 157.096 125.679 157.106 125.584 157.136ZM126.512 147.2C125.712 147.376 125.408 149.52 126.384 149.728C127.696 149.968 127.792 146.864 126.512 147.2ZM112.576 146.544C111.52 146.544 110.976 149.28 112.224 149.568C113.472 149.856 113.6 146.592 112.576 146.544ZM250.88 105.44C252.08 106.144 252.96 104.48 251.648 103.968C250.642 103.572 249.524 103.57 248.516 103.961C247.508 104.353 246.684 105.109 246.208 106.08C245.856 106.8 247.008 107.376 247.424 106.688C247.777 106.123 248.31 105.693 248.937 105.467C249.563 105.241 250.248 105.231 250.88 105.44ZM261.504 120.432C259.087 121.834 256.224 122.257 253.504 121.616C253.403 121.574 253.294 121.552 253.184 121.552C253.074 121.552 252.966 121.574 252.864 121.616C252.24 122.016 252.096 124.336 253.744 125.632C254.66 126.198 255.678 126.576 256.741 126.747C257.804 126.917 258.89 126.875 259.936 126.624C262.944 125.632 263.136 119.488 261.504 120.432ZM261.056 122.336C261.056 123.728 260 125.216 259.2 125.36C257.12 125.728 253.808 125.216 253.616 123.008C256.101 123.63 258.723 123.394 261.056 122.336ZM248 110.672C247.632 109.776 246.576 110.672 246.4 111.68C246.272 112.336 246.624 112.672 247.12 112.672C248 112.672 248.256 111.344 248 110.672ZM258.272 115.536C258.736 115.856 259.504 114.72 259.632 113.936C259.808 112.832 258.784 112.64 258.208 113.28C257.632 113.92 257.424 115.344 258.272 115.536ZM252.592 119.344C252.592 118.992 252.208 118.688 251.712 118.672C251.584 118.672 251.2 118.672 251.12 118.512C250.784 118.064 252.544 113.568 253.136 112.256C253.36 111.792 253.136 111.44 252.688 111.52C251.472 111.76 250.032 116.176 249.728 117.328C248.944 120.448 252.608 120.4 252.592 119.344ZM262.4 106.304C260.592 104.592 258.864 105.168 258.928 106.08C259.008 107.568 261.792 106.08 262.128 109.504C262.148 109.645 262.214 109.775 262.314 109.876C262.415 109.976 262.545 110.041 262.686 110.061C262.827 110.081 262.97 110.055 263.095 109.986C263.219 109.917 263.318 109.81 263.376 109.68C263.561 109.083 263.567 108.446 263.393 107.846C263.22 107.246 262.875 106.71 262.4 106.304ZM92.8002 123.888C92.6868 123.911 92.579 123.956 92.483 124.021C92.387 124.086 92.3047 124.169 92.2408 124.266C92.177 124.362 92.1327 124.47 92.1106 124.584C92.0886 124.698 92.0891 124.815 92.1122 124.928C92.1353 125.041 92.1806 125.149 92.2454 125.245C92.3101 125.341 92.3932 125.424 92.4897 125.487C92.5863 125.551 92.6945 125.596 92.8082 125.618C92.9219 125.64 93.0388 125.639 93.1522 125.616L98.1602 124.512C93.7122 129.008 62.0162 160.832 50.9602 172.32C47.3762 166.032 43.8402 159.12 40.0802 153.12C39.6002 152.352 38.8162 152.56 38.1282 153.232C29.8082 161.232 21.2482 170.432 13.2482 178.656C13.1429 178.771 13.0743 178.915 13.0512 179.069C13.0281 179.224 13.0516 179.381 13.1186 179.522C13.1856 179.663 13.2931 179.781 13.4273 179.86C13.5616 179.94 13.7165 179.977 13.8722 179.968C14.2882 179.968 12.8002 181.568 39.1362 154.912C44.7042 164.512 49.4562 176.32 51.4882 174.368C73.8882 153.088 99.6162 125.168 99.4882 126.368C98.8962 130.336 98.8322 130.672 99.1682 131.04C99.2627 131.145 99.383 131.224 99.5172 131.269C99.6513 131.314 99.7948 131.323 99.9336 131.295C100.072 131.268 100.202 131.205 100.309 131.112C100.416 131.02 100.497 130.901 100.544 130.768C100.544 130.768 102.384 123.248 101.792 122.512C100.8 121.296 95.0562 123.312 92.8002 123.888ZM247.584 154.752C246.512 155.84 248.128 157.728 249.184 155.696C249.76 154.464 248.976 153.36 247.584 154.752ZM246.4 163.2C246.216 163.189 246.031 163.219 245.859 163.288C245.688 163.358 245.534 163.464 245.408 163.6C245.203 163.807 245.072 164.077 245.038 164.367C245.003 164.657 245.066 164.95 245.216 165.2C246.016 166.88 247.84 163.68 246.4 163.2ZM241.6 182.656C240.64 182.448 239.664 184.88 241.168 185.104C242.208 185.2 242.448 182.848 241.6 182.656ZM238.688 192.624C237.872 192.992 237.232 194.976 238.176 195.312C238.45 195.376 238.738 195.344 238.991 195.221C239.244 195.099 239.448 194.894 239.568 194.64C240.272 193.488 239.408 192.288 238.688 192.624ZM243.408 172.176C241.632 173.104 243.28 176.096 244.384 173.968C244.928 172.896 244.432 171.648 243.408 172.176ZM232.544 225.952C231.376 225.728 231.136 228.72 232.544 228.288C233.376 228.032 233.392 226.112 232.544 225.952ZM231.664 236.896C230.88 237.232 230.448 238.72 231.456 239.056C231.647 239.096 231.846 239.07 232.02 238.983C232.194 238.896 232.334 238.753 232.416 238.576C233.008 237.616 232.32 236.624 231.664 236.896Z" fill="#362D2E"/>
<path d="M307.552 260.976H287.168C288.848 256.848 290.368 232.768 289.824 228.704C305.728 226.608 312.224 216.544 312 201.136C311.749 187.508 307.378 174.276 299.461 163.18C291.544 152.085 280.453 143.646 267.648 138.976C267.216 136.928 269.584 127.456 270.592 125.264C272.032 122.064 276.384 119.568 275.92 116.16C277.984 113.776 286.288 100.752 281.328 97.824C281.011 97.6368 280.657 97.5174 280.291 97.4733C279.925 97.4293 279.554 97.4615 279.2 97.568C279.824 92.64 276.112 92.768 274.4 94.64C274.347 93.8461 274.053 93.0874 273.557 92.4655C273.06 91.8435 272.386 91.3881 271.624 91.1601C270.861 90.9321 270.048 90.9425 269.291 91.1898C268.535 91.4371 267.873 91.9097 267.392 92.544C266.688 88.48 262.72 88.064 259.968 90.56C259.675 89.7343 259.154 89.0079 258.467 88.4638C257.78 87.9196 256.954 87.5798 256.083 87.483C255.212 87.3862 254.331 87.5364 253.541 87.9164C252.751 88.2964 252.084 88.8909 251.616 89.632C250.56 87.04 247.872 86.96 246.816 90.832C246.544 91.824 245.216 100.864 245.552 101.648C242.853 108.554 241.161 115.812 240.528 123.2C240.347 124.929 240.611 126.676 241.294 128.275C241.977 129.874 243.057 131.272 244.432 132.336C245.255 133.092 246.156 133.757 247.12 134.32C246.504 135.714 246.125 137.201 246 138.72C231.958 137.313 218.188 133.914 205.104 128.624C190.992 122.592 197.104 125.424 173.312 84.56C173.104 84.208 172.368 84.368 172 84.32C171.28 80.976 170.736 74.288 174.464 72.384C175.696 72.048 174.944 69.184 171.072 70.416C170.318 70.6457 169.618 71.0228 169.011 71.5254C168.404 72.028 167.903 72.6462 167.536 73.344C165.536 70.144 163.776 60.336 162.08 58.208C161.024 56.896 159.376 57.888 159.376 60.992C159.605 63.7735 160.016 66.5368 160.608 69.264C160.271 69.1804 159.921 69.1642 159.577 69.2163C159.234 69.2684 158.904 69.3878 158.606 69.5676C158.309 69.7475 158.05 69.9843 157.845 70.2644C157.639 70.5445 157.491 70.8625 157.408 71.2C154.096 70.192 153.008 76 153.456 78.032C153.535 78.3391 153.685 78.6235 153.893 78.8624C154.102 79.1013 154.363 79.2882 154.656 79.408C154.895 82.7183 156.047 85.8976 157.984 88.592C157.648 88.832 156.032 89.936 156.064 90.336C157.232 102.336 163.616 123.584 168.016 133.312C174.976 148.752 184.832 157.136 207.184 170.72C199.184 191.52 196.816 213.728 195.984 235.904C195.888 238.352 195.12 260.592 195.616 261.024H175.376C185.296 258.624 189.216 250.96 189.952 241.216C192.256 211.072 170.88 181.36 138.608 174.688C138.432 172.72 138.32 164.336 139.12 162.88C143.272 159.183 146.36 154.443 148.064 149.152C150.656 140.592 147.488 129.616 138.928 125.808C127.728 120.832 110.896 127.936 109.168 138.336L107.968 142.4C103.056 144.56 102.192 152.16 106.256 154.512C106.064 160.032 106.256 170.384 113.888 170.8C113.76 171.712 113.648 172.64 113.536 173.552C97.2804 173.552 78.0324 183.984 70.2084 198.608C51.2004 198.4 32.0004 197.808 13.0564 198.08C12.9653 198.082 12.8755 198.102 12.7926 198.14C12.7097 198.178 12.6353 198.232 12.5739 198.299C12.5125 198.367 12.4655 198.446 12.4357 198.532C12.4059 198.618 12.3938 198.709 12.4004 198.8C13.1364 209.008 20.0484 251.84 22.2724 260.976C17.9044 260.976 13.5364 260.976 9.16837 261.2C8.64037 261.2 8.72037 262.032 9.16837 262.032C65.6484 262.832 265.168 262.224 307.568 262.224C308.432 262.224 308.336 260.976 307.552 260.976ZM52.0484 238.928C45.2004 240.8 37.9684 220.736 47.3604 219.376C56.4964 218.048 59.3764 236.912 52.0484 238.928ZM110.064 138.256C118.919 135.763 128.364 136.425 136.784 140.128C137.28 140.352 135.312 145.216 135.184 146.032L130.784 146.32C130.505 145.068 129.839 143.935 128.881 143.081C127.923 142.227 126.721 141.696 125.445 141.562C124.169 141.427 122.883 141.697 121.768 142.332C120.654 142.968 119.767 143.937 119.232 145.104C118.598 144.63 117.82 144.388 117.028 144.417C116.237 144.446 115.479 144.745 114.88 145.264C114.709 144.629 114.395 144.04 113.963 143.544C113.53 143.048 112.991 142.657 112.384 142.4C112.64 141.792 113.088 140.912 115.088 141.104C115.208 141.128 115.331 141.123 115.448 141.09C115.565 141.056 115.672 140.996 115.761 140.913C115.85 140.83 115.918 140.728 115.96 140.613C116.002 140.499 116.015 140.377 116 140.256C115.76 138.768 111.776 139.12 110.976 142.032C110.299 141.907 109.605 141.907 108.928 142.032C109.242 140.755 109.621 139.494 110.064 138.256ZM123.632 154.56C119.888 154.56 118.736 148.928 119.952 146.064C122.16 140.992 128.928 141.616 129.76 147.152C129.846 148.041 129.756 148.939 129.494 149.793C129.232 150.647 128.805 151.441 128.235 152.129C127.666 152.817 126.966 153.386 126.176 153.804C125.386 154.221 124.522 154.478 123.632 154.56ZM108.624 143.36C116.624 140.16 115.568 156.16 107.328 153.744C107.49 150.265 107.923 146.804 108.624 143.392V143.36ZM107.616 143.888C106.923 146.951 106.484 150.065 106.304 153.2C103.888 151.296 104.32 145.984 107.616 144V143.888ZM114.496 174.288C114.496 173.776 115.264 170 114.336 169.984C113.488 168.688 106.912 171.584 107.28 154.96C111.984 156.288 116.08 151.584 115.28 146.528C116.752 144.928 117.824 145.728 118.768 146.176C117.504 149.776 119.04 155.2 123.232 155.776C127.056 156.224 131.392 151.728 130.992 147.344L135.232 147.2C135.265 147.64 135.399 148.066 135.624 148.445C135.849 148.825 136.159 149.146 136.53 149.385C136.901 149.624 137.322 149.774 137.76 149.822C138.199 149.87 138.642 149.816 139.056 149.664C141.44 148.736 141.888 151.264 141.216 153.088C138.369 158.806 137.031 165.156 137.328 171.536C137.728 178.368 136.48 173.84 149.392 179.088C136.928 185.801 125.494 194.272 115.44 204.24C113.84 200.576 108.032 184.912 106.336 175.44C113.984 174.256 114.368 175.232 114.496 174.4V174.288ZM85.9204 258.944C85.1524 258.48 85.6644 259.52 82.4964 240.368C80.4804 228.224 78.3844 215.664 77.1204 202.992C77.1107 202.743 77.1935 202.5 77.3528 202.308C77.512 202.117 77.7364 201.991 77.9828 201.956C78.2292 201.92 78.4801 201.976 78.6872 202.115C78.8943 202.253 79.0429 202.463 79.1044 202.704C81.9044 223.504 86.6244 247.792 87.8084 257.728C87.8365 257.961 87.7987 258.197 87.6991 258.409C87.5995 258.621 87.4422 258.8 87.2452 258.927C87.0482 259.054 86.8195 259.123 86.5852 259.126C86.3509 259.129 86.1205 259.066 85.9204 258.944ZM164.448 260.544C165.136 259.84 144.256 261.952 118.608 244.544C121.472 241.232 124.208 232.176 123.28 227.552C148.384 225.088 154.832 227.728 165.968 229.152C166.056 229.15 166.14 229.118 166.207 229.062C166.274 229.005 166.319 228.928 166.336 228.842C166.353 228.756 166.34 228.667 166.299 228.59C166.258 228.512 166.193 228.451 166.112 228.416C160.973 227.037 155.71 226.169 150.4 225.824C150.224 222.624 148.592 214.704 146.848 211.664C146.688 211.376 146.112 211.552 146.224 211.872C147.617 216.403 148.655 221.036 149.328 225.728C140.35 224.96 131.312 225.298 122.416 226.736C122.299 226.755 122.193 226.816 122.116 226.907C122.04 226.998 121.999 227.113 122 227.232C112.144 226.4 108.96 219.04 96.5764 229.248C93.0404 232.176 95.1684 234.416 97.1844 233.776L100.384 232.592C99.3271 234.062 98.4363 235.645 97.7284 237.312C96.4644 240.864 98.3524 243.104 100.032 241.952C100.864 241.392 101.632 239.04 104.496 236.576C104.496 236.576 102.8 245.264 106.192 245.408C109.136 245.552 108.4 236.496 110.992 237.696C111.424 240.464 115.312 243.824 117.68 244.88C130.112 255.872 150.496 260 156.48 260.88H135.696C135.696 260.08 136.048 255.84 135.136 255.68C127.504 254.256 101.04 251.552 92.5764 251.28C93.1844 250.544 84.1284 207.328 83.2644 203.28C82.2724 198.48 80.0644 198.752 71.3284 198.752C79.7124 186.768 90.5284 178.496 105.296 175.728C106.208 181.904 113.616 207.328 115.92 205.264C127.968 194.48 136.24 187.168 150.704 179.664C161.887 184.455 171.445 192.378 178.224 202.48C185.004 212.581 188.716 224.428 188.912 236.592C189.2 254.48 181.104 261.392 164.448 260.544ZM108.224 232.672C106.176 233.008 105.568 234.784 105.024 235.072C100.928 237.424 100.4 240.128 99.4564 240.992C97.8564 242.432 97.2804 237.104 102.096 231.968C103.808 230.208 104.64 230.448 104.432 229.776C104.392 229.659 104.308 229.561 104.198 229.505C104.087 229.448 103.959 229.436 103.84 229.472C102.903 229.853 102.066 230.445 101.392 231.2C101.008 231.44 96.4324 232.992 96.0004 232.704C94.0484 231.408 100.688 227.392 101.312 227.008C108.976 222.208 114.4 227.76 122.032 228.368C122.624 234.928 120.592 238.736 117.808 244.096C112.576 240.896 112.464 237.696 111.408 237.008C110.955 236.714 110.404 236.61 109.875 236.718C109.345 236.825 108.879 237.136 108.576 237.584C107.552 239.024 107.328 243.6 106.368 244.24C104.768 245.28 104.768 238.88 105.296 237.12C105.529 236.312 105.936 235.566 106.489 234.933C107.042 234.299 107.727 233.795 108.496 233.456C108.96 233.216 108.656 232.592 108.224 232.672ZM310.832 201.216C311.024 216.512 304.432 225.808 289.152 227.632C277.952 228.976 263.36 226.416 254.096 224.24C256.029 216.314 256.607 208.119 255.808 200C264.496 199.264 279.52 196.8 287.648 193.216C287.738 193.182 287.811 193.115 287.854 193.03C287.897 192.944 287.906 192.845 287.88 192.753C287.854 192.661 287.795 192.582 287.713 192.531C287.632 192.481 287.535 192.462 287.44 192.48C283.488 193.424 279.44 194.816 275.424 195.68C275.116 189.585 274.238 183.532 272.8 177.6C272.672 177.104 271.904 177.328 272.016 177.84C273.279 183.83 274.033 189.915 274.272 196.032C263.554 198.401 252.591 199.476 241.616 199.232C241.232 199.232 240.736 199.824 240.736 200.24C237.632 200.24 234.752 197.6 234.576 196.048C238.368 178.32 243.392 162.96 249.136 145.936C249.296 146.752 250.032 151.904 250.832 152.048C255.174 152.675 259.604 152.176 263.698 150.599C267.791 149.021 271.41 146.419 274.208 143.04C285.055 148.454 294.207 156.742 300.665 167.001C307.123 177.26 310.64 189.095 310.832 201.216ZM223.104 204.32C223.392 204.896 224 204.608 223.888 204.16C222.816 199.936 226.512 198.88 229.504 199.2C229.696 200.272 229.328 200.128 227.904 200.064C226.928 200.064 227.504 201.024 228.24 201.152C229.84 201.392 230.992 200.736 230.736 198.352C230.736 198 230.624 192.144 231.616 191.952C233.712 191.632 231.616 198.352 238.016 200.816C238.919 201.201 239.906 201.344 240.88 201.232C241.436 207.127 240.727 213.073 238.8 218.672C237.2 217.984 224.768 220.56 223.072 210.672C223.84 210.192 221.12 208 223.104 204.32ZM241.968 200.256C246.165 200.461 250.371 200.397 254.56 200.064C255.336 208.091 254.844 216.19 253.104 224.064C249.984 223.312 240.496 220.704 239.776 219.424C241.856 214.592 242.528 205.456 241.968 200.256ZM273.456 142.656C268.176 148.336 261.936 151.872 251.232 151.264C250.974 148.753 250.497 146.269 249.808 143.84C255.184 144.192 262.112 142.096 266.976 139.904C273.6 142.736 273.296 142.56 273.456 142.688V142.656ZM247.856 134.272C249.568 133.024 241.232 131.328 241.696 123.264C242.128 115.632 244.464 108.304 246.656 101.072C255.952 100.8 261.216 101.488 269.792 105.664C269.056 107.392 266.24 115.616 269.792 115.552C270.96 115.552 271.776 114.384 272.896 114.32C274.016 114.256 275.008 115.76 274.88 116.912C274.464 120.592 270.48 120.368 268.48 127.92C268.256 128.752 266.016 138.224 266.448 138.88C259.488 142.528 254.608 142.432 249.408 142.96C248.56 141.808 247.696 140.672 246.848 139.536C247.152 136.912 248 135.328 247.808 134.304L247.856 134.272ZM245.936 139.696C246.474 140.985 247.232 142.171 248.176 143.2C245.928 144.682 243.588 146.018 241.168 147.2C239.664 140.96 240.464 141.632 240.128 139.2C242.034 139.512 243.958 139.688 245.888 139.728L245.936 139.696ZM160.816 70.256L160.928 71.12C160.048 74.432 161.056 75.92 160.736 76.544C160.416 77.168 158.896 77.2 158.544 74.656C158.192 72.112 157.648 69.984 160.768 70.288L160.816 70.256ZM154.992 78.256C153.392 78.256 154.848 70.256 157.28 72.112C157.278 72.7537 157.315 73.395 157.392 74.032C157.056 74.224 156.208 78.4 154.944 78.4L154.992 78.256ZM155.808 79.136C156.864 78.56 157.216 76.496 157.6 75.408C158.336 78.608 161.52 78.432 161.84 76.416C161.968 75.68 161.488 74.256 161.584 72.752C162.096 72.56 164.256 72.048 164.192 71.456C164.08 70.56 162.72 71.184 162.288 71.36C161.632 68.912 160.096 61.76 160.544 59.616C161.6 54.208 164.832 73.344 167.472 74.144C168.464 74.448 167.952 72.544 170.88 71.408C171.52 71.168 173.136 70.72 173.776 71.2C169.728 73.856 169.888 80.112 171.088 84.128C166.668 84.3036 162.371 85.633 158.624 87.984C157.046 85.3151 156.068 82.3337 155.76 79.248L155.808 79.136ZM156.976 90.128C161.588 86.8519 167.096 85.0754 172.752 85.04C174.352 88.24 176.128 91.44 177.84 94.64C171.158 95.2279 164.776 97.6841 159.424 101.728C158.768 99.28 156.928 90.528 156.928 90.24L156.976 90.128ZM197.152 235.728C198.192 207.2 202.128 177.76 216.736 152.656C216.992 152.224 216.256 151.92 216 152.336C212.645 157.811 209.816 163.591 207.552 169.6C192.016 160.144 176.672 150.528 169.04 133.168C165.84 125.712 161.712 111.408 159.632 102.912C168.816 96.944 173.328 96.512 178.336 95.776C180.16 99.072 187.616 113.04 191.584 119.92C194.064 124.208 195.072 125.728 204.528 129.744C215.599 134.353 227.222 137.504 239.104 139.12C238.71 142.03 239.148 144.993 240.368 147.664C240.864 149.376 248.512 144.304 248.816 144.112C242.689 160.431 237.696 177.153 233.872 194.16C233.376 192.224 233.52 190.752 231.168 191.088C229.344 191.36 229.568 196.896 229.568 198.128C227.616 198.128 225.504 197.936 224.016 199.44C223.502 199.954 223.121 200.585 222.907 201.279C222.692 201.974 222.65 202.71 222.784 203.424C222.144 203.68 221.392 205.952 221.36 207.136C221.371 208.192 221.606 209.233 222.048 210.192C221.696 214.512 225.424 217.84 229.296 219.04C228.048 227.52 227.12 236.053 226.512 244.64C216.521 242.378 206.696 239.438 197.104 235.84L197.152 235.728ZM227.648 244.8C228.256 236.267 229.179 227.771 230.416 219.312C233.053 219.804 235.738 219.987 238.416 219.856C241.408 224.16 272.512 230.16 288.704 228.832C288.867 235.241 288.621 241.654 287.968 248.032C267.815 250.04 247.472 248.95 227.648 244.8Z" fill="#362D2E"/>
</svg>
