<svg width="49" height="48" viewBox="0 0 49 48" fill="none" xmlns="http://www.w3.org/2000/svg">
<rect x="0.75" y="0.25" width="47.5" height="47.5" rx="23.75" fill="white"/>
<rect x="0.75" y="0.25" width="47.5" height="47.5" rx="23.75" stroke="#F2F2F2" stroke-width="0.5"/>
<path d="M24.5642 17.6293C23.3962 17.6293 21.5882 16.3013 19.6842 16.3493C17.1722 16.3813 14.8682 17.8053 13.5722 20.0613C10.9642 24.5893 12.9002 31.2773 15.4442 34.9573C16.6922 36.7493 18.1642 38.7653 20.1162 38.7013C21.9882 38.6213 22.6922 37.4853 24.9642 37.4853C27.2202 37.4853 27.8602 38.7013 29.8442 38.6533C31.8602 38.6213 33.1402 36.8293 34.3722 35.0213C35.7962 32.9413 36.3882 30.9253 36.4202 30.8133C36.3722 30.7973 32.5002 29.3093 32.4522 24.8293C32.4202 21.0853 35.5082 19.2933 35.6522 19.2133C33.8922 16.6373 31.1882 16.3493 30.2442 16.2853C27.7802 16.0933 25.7162 17.6293 24.5642 17.6293ZM28.7242 13.8533C29.7642 12.6053 30.4522 10.8613 30.2602 9.1333C28.7722 9.1973 26.9802 10.1253 25.9082 11.3733C24.9482 12.4773 24.1162 14.2533 24.3402 15.9493C25.9882 16.0773 27.6842 15.1013 28.7242 13.8533Z" fill="#524344"/>
</svg>
