<svg width="18" height="10" viewBox="0 0 18 10" fill="none" xmlns="http://www.w3.org/2000/svg">
<path d="M9.5427 9.76735L17.5077 1.40785C17.6407 1.26837 17.7148 1.08306 17.7148 0.890349C17.7148 0.697643 17.6407 0.512333 17.5077 0.37285L17.4987 0.36385C17.4342 0.295997 17.3567 0.241967 17.2707 0.205047C17.1847 0.168126 17.092 0.149087 16.9985 0.149087C16.9049 0.149087 16.8122 0.168126 16.7262 0.205047C16.6403 0.241967 16.5627 0.295997 16.4982 0.36385L8.9982 8.23585L1.5012 0.36385C1.43674 0.295997 1.35915 0.241967 1.27315 0.205047C1.18715 0.168126 1.09454 0.149087 1.00095 0.149087C0.907362 0.149087 0.814751 0.168126 0.728752 0.205047C0.642752 0.241967 0.565163 0.295997 0.500702 0.36385L0.491701 0.37285C0.358734 0.512333 0.284557 0.697643 0.284557 0.890349C0.284557 1.08306 0.358734 1.26837 0.491701 1.40785L8.4567 9.76735C8.52675 9.84087 8.61099 9.8994 8.70433 9.93939C8.79767 9.97938 8.89816 10 8.9997 10C9.10125 10 9.20173 9.97938 9.29507 9.93939C9.38841 9.8994 9.47266 9.84087 9.5427 9.76735Z" fill="#868E96"/>
</svg>
