<svg width="16" height="16" viewBox="0 0 16 16" fill="none" xmlns="http://www.w3.org/2000/svg">
<path fill-rule="evenodd" clip-rule="evenodd" d="M1.47032 1.47007C1.61094 1.32962 1.80157 1.25073 2.00032 1.25073C2.19907 1.25073 2.38969 1.32962 2.53032 1.47007L14.5303 13.4701C14.604 13.5387 14.6631 13.6215 14.7041 13.7135C14.7451 13.8055 14.7671 13.9048 14.7689 14.0056C14.7707 14.1063 14.7522 14.2063 14.7144 14.2997C14.6767 14.3931 14.6206 14.4779 14.5494 14.5491C14.4781 14.6203 14.3933 14.6765 14.2999 14.7142C14.2065 14.7519 14.1065 14.7704 14.0058 14.7687C13.9051 14.7669 13.8058 14.7448 13.7138 14.7039C13.6218 14.6629 13.539 14.6038 13.4703 14.5301L1.47032 2.53007C1.32987 2.38945 1.25098 2.19882 1.25098 2.00007C1.25098 1.80132 1.32987 1.6107 1.47032 1.47007Z" fill="#FBF9F9" stroke="#FBF9F9"/>
<path fill-rule="evenodd" clip-rule="evenodd" d="M14.5298 1.47007C14.6703 1.6107 14.7492 1.80132 14.7492 2.00007C14.7492 2.19882 14.6703 2.38945 14.5298 2.53007L2.52985 14.5301C2.38767 14.6626 2.19963 14.7347 2.00532 14.7312C1.81102 14.7278 1.62564 14.6491 1.48822 14.5117C1.35081 14.3743 1.2721 14.1889 1.26867 13.9946C1.26524 13.8003 1.33737 13.6122 1.46985 13.4701L13.4698 1.47007C13.6105 1.32962 13.8011 1.25073 13.9998 1.25073C14.1986 1.25073 14.3892 1.32962 14.5298 1.47007Z" fill="#FBF9F9" stroke="#FBF9F9"/>
</svg>
