<svg width="320" height="320" viewBox="0 0 320 320" fill="none" xmlns="http://www.w3.org/2000/svg">
<path d="M287.331 105.586C285.387 108.717 257.142 198.792 252.197 209.675C251.379 211.477 249.848 209.984 241.459 208.245C239.859 207.914 240.086 208.074 239.624 209.219C238.794 211.283 236.57 217.717 236.046 219.173C235.704 220.122 235.691 220.597 236.922 221.059C239.97 222.203 241.594 222.435 244.699 223.405C245.302 223.429 245.899 223.27 246.413 222.95C248.626 220.995 251.323 219.672 254.224 219.12C257.602 218.717 257.336 221.061 256.406 221.45C254.842 221.862 253.328 222.446 251.893 223.192C251.054 223.653 247.286 225.694 248.126 226.15C250.403 227.222 252.405 228.802 253.976 230.766C255.408 232.603 252.696 234.261 251.306 232.754C249.666 231.245 247.768 230.038 245.706 229.194C244.906 228.83 244.605 228.595 243.371 229.795C242.07 231.062 206.218 274.149 188.778 292.298C185.757 295.442 187.414 297.632 188.035 303.838C188.904 312.514 183.942 307.086 183.198 304.072C182.632 301.773 182.146 296.203 180.85 295.787C172.168 293.002 132.705 286.507 24.4958 245.011C8.55186 238.896 9.47986 239.461 10.2015 238.845C28.4926 223.222 50.2206 207.965 70.4478 194.045C70.5044 194.006 70.5492 193.952 70.5774 193.888C70.6057 193.826 70.6163 193.757 70.608 193.688C70.5998 193.619 70.5731 193.554 70.5308 193.499C70.4886 193.445 70.4321 193.403 70.3678 193.378C69.995 193.232 69.5438 193.069 69.2302 192.965C69.1368 192.934 69.0377 192.923 68.9398 192.934C68.8419 192.946 68.7476 192.979 68.6638 193.03C65.7278 194.88 52.9438 202.736 31.1518 219.133C4.94546 238.851 8.02066 239.275 8.19986 242.23C8.33027 245.811 8.69317 249.381 9.28626 252.914C9.53426 253.786 9.35186 254.171 10.7711 254.733C62.931 275.373 110.512 292.115 167.251 306.906C182.016 310.755 185.957 312.13 187.602 310.989C194.072 306.509 249.429 245.445 254.322 234.81C255.062 233.197 259.685 232.003 259.662 222.077C259.662 221.47 259.266 221.883 262.666 213.394C273.659 185.947 303.918 89.1171 304.256 84.7203C304.8 77.6115 291.216 99.3283 287.331 105.586Z" fill="#001434"/>
<path d="M202.461 48.4611C201.693 50.0675 200.773 51.5967 199.714 53.0275C199.014 54.1475 198.925 54.3635 198.346 54.2179C192.256 52.6835 149.718 41.7379 135.475 40.4963C133.381 40.3139 133.429 42.1523 132.318 42.0067C129.817 41.6952 127.336 41.2319 124.891 40.6195C122.504 40.1283 120.768 39.9299 121.009 38.8723C124.329 24.2483 136.734 28.7427 169.861 35.5667C177.085 37.0547 189.714 39.4755 195.678 41.5203C197.072 42.0003 196.603 45.2499 201.531 47.8147C202.483 48.3107 202.221 48.1603 202.461 48.4611Z" fill="#001434"/>
<path d="M78.1277 203.2C89.3022 206.026 97.507 209.699 98.5758 208.834C99.4014 208.166 102.117 206.029 103.056 205.442C103.387 205.234 103.795 205.685 103.609 206.014C103 207.093 102.819 207.066 100.147 209.446C99.6766 209.867 97.8253 209.064 124.413 217.619C125.299 217.904 124.929 217.902 130.611 213.43C131.109 213.04 131.987 212.813 129.958 214.803C126.651 218.048 126.205 218.218 126.846 218.426L153.334 226.97C154.195 227.29 153.918 227.224 160.912 221.246C161.232 220.973 161.808 221.112 160.707 222.33C155.225 228.395 155.341 227.63 156.88 228.138C189.971 239.05 189.549 239.426 189.979 239.032C196.467 233.112 196.306 233.112 196.653 233.315C196.933 233.475 195.28 235.35 195.248 235.395C191.123 240.018 191.074 239.715 191.643 239.923C202.64 243.934 207.888 245.76 209.226 246.422C209.672 246.643 209.598 246.949 209.245 246.949C208.19 246.949 190.685 241.126 190.635 241.115C190.091 240.976 190.005 241.134 188.435 242.808C176.629 255.406 177.053 254.53 177.702 254.771C184.902 257.462 199.166 262.627 201.971 263.773C202.65 264.05 202 263.784 234.792 227.387C235.112 227.03 235.011 227.182 233.17 226.664C232.702 226.533 232.258 226.419 232.406 225.832C232.555 225.245 232.982 225.179 233.446 225.27C235.366 225.65 237.462 225.795 236.216 227.712C233.453 231.957 216.653 250.134 215.106 251.872C202.898 265.578 203.558 265.378 202.35 265.05C202.126 264.989 128.627 239.275 128.553 239.248C92.1678 226.058 55.3038 215.749 53.331 214.245C51.9374 213.184 56.2605 211.478 74.5069 196.805C74.9325 196.462 75.3917 196.262 75.6269 196.485C75.9037 196.747 75.7038 196.918 75.4014 197.232C72.8253 199.907 55.9918 212.922 55.9358 212.965C54.9326 213.747 54.8158 213.712 57.3438 214.424C84.5822 222.072 83.4734 223.022 84.6382 221.867C96.5709 210.019 96.8862 210.774 95.9517 210.466C85.5998 207.04 79.091 205.12 76.9597 204.053C75.4061 203.275 76.4093 202.762 78.1277 203.2ZM154.296 229.382C153.51 230.072 154.145 229.451 142.296 241.286C142.144 241.446 141.797 241.677 142.027 241.888C142.078 241.936 175.038 253.765 174.997 253.75C175.888 254.07 175.458 253.902 177.142 252.078C183.122 245.61 181.819 247.029 187.894 240.95C188.664 240.181 189.738 240.885 177.632 236.986C154.27 229.453 155.029 229.672 154.296 229.378V229.382ZM152.161 228.85C151.731 228.502 152.192 228.746 125.761 220.187C124.641 219.827 124.739 219.803 123.318 221.099C120.481 223.685 111.606 231.269 112.598 231.728C140.181 241.206 139.885 241.418 140.267 240.95C143.951 236.65 147.925 232.605 152.16 228.845L152.161 228.85ZM110.689 231.09C116.465 223.901 120.963 221.65 122.909 219.374C121.478 218.771 122.909 219.328 108.609 214.659C97.8029 211.139 98.2701 210.96 97.6941 211.512C88.2542 220.554 97.4126 211.658 86.6318 222.208C85.2798 223.528 83.3085 221.835 110.689 231.082V231.09Z" fill="#001434"/>
<path d="M119.937 271.6C101.057 267.226 59.1886 250.95 57.1262 249.2C56.9942 249.09 56.8875 248.954 56.8131 248.798C56.7387 248.643 56.6985 248.475 56.6952 248.302C56.6918 248.131 56.7254 247.962 56.7937 247.803C56.8621 247.646 56.9635 247.506 57.091 247.39C60.7982 243.411 77.731 228.238 80.251 228.973C96.2942 233.643 107.451 237.122 125.568 243.8C141.376 249.627 143.382 249.973 142.19 252.307C141.499 253.661 138.03 256.434 127.421 265.883C122.736 270.061 121.737 271.466 119.937 271.6ZM141.019 251.44C140.059 250.104 86.267 232.429 81.0494 230.709C79.619 230.238 80.2366 229.653 77.9598 231.29C74.8958 234.269 71.6821 237.09 68.331 239.742C57.7102 248.642 58.251 247.955 58.8558 248.2C82.5598 257.779 89.3598 260.008 111.84 267.477C119.637 270.069 119.856 270.488 120.976 269.382C132.425 258.067 139.392 253.314 141.019 251.446V251.44Z" fill="#001434"/>
<path d="M216.837 143.649C212.837 142.452 212.989 142.68 214.061 141.104C216.586 137.39 218.435 134.361 216.082 130.52C212.802 125.163 198.766 122.142 198.558 135.47C198.512 138.448 198.211 138.294 197.598 138.132C161.733 128.646 165 131.523 159.298 136.547C159.138 134.868 159.392 133.64 158.514 132.416C157.446 130.929 156.69 130.716 157.254 130.577C161.674 129.488 162.464 124.236 164.294 118.084C168.8 102.923 168.434 104.068 168.661 102.544C169.293 98.3292 160.304 101.086 157.781 97.0076C156.392 94.7676 156.774 90.094 159.934 87.0988C163.414 83.8012 168.094 88.0108 169.667 88.8028C170.445 89.1932 171.878 89.0908 172.254 88.3036C173.138 86.4524 173.374 85.4604 174.822 78.758C177.494 66.3644 177.542 64.7084 176.925 61.7644C175.906 56.9228 172.229 55.4748 167.763 54.23C158.4 51.622 102.15 36.1948 93.32 41.2524C91.032 42.5628 90.6336 43.0124 83.8 68.0652C72.7056 108.742 73.888 109.843 78.52 113.521C78.16 113.704 77.7952 113.88 77.4368 114.065C74.4368 115.62 72.5456 119.577 71.5296 122.803C65.9904 140.393 65.5792 142.803 66.3712 143.412C68.44 145.025 69.4112 143.108 73.0256 143.732C79.2432 144.808 76.7472 155.86 72.4752 157.027C69.7424 157.772 68.3008 156.376 64.9232 155.494C62.5616 154.88 62.0432 157.329 61.4976 159.708C58.5792 172.227 57.5168 178.086 57.0416 180.862C56.3536 184.89 57.4256 187.093 61.1872 188.691C68.2864 191.709 88.576 198.645 98.128 201.443C131.864 211.326 133.691 210.883 136.312 209.973C138.933 209.062 138.923 207.635 139.318 208.55C139.68 209.546 140.26 210.448 141.016 211.19C141.772 211.931 142.685 212.494 143.688 212.837C155.741 217.974 184.434 227.557 199.955 230.963C214.709 234.198 222.566 239.318 227.19 232.341C232.95 223.656 244.01 182.227 246.68 172.157C251.642 153.486 254.739 154.99 216.837 143.649ZM88.9344 57.2492C93.4144 40.9772 92.1808 42.5564 97.72 42.0972C120.242 44.0332 148.352 50.3612 168.12 56.2012C177.776 59.0556 176.704 62.0412 170.859 86.7612C170.389 88.7484 168.155 84.214 163.077 83.9228C158.838 83.678 155.613 88.4748 155.35 92.1964C155.317 92.6604 155.19 93.23 155.2 93.4524C155.912 104.985 167.2 99.7996 166.642 102.678C166.27 104.598 165.829 106.496 165.299 108.374C158.696 131.819 161.677 130.825 144.819 127.593C142.933 127.232 126.162 123.913 124.557 123.697C120.454 123.145 122.49 127.188 120.933 132.017C119.626 136.075 114.082 136.836 110.533 134.577C101.733 128.977 112.827 122.825 109.475 120.512C106.915 118.752 83.2752 114.992 78.624 111.537C75.1904 108.993 77.0256 100.435 88.9344 57.2556V57.2492ZM119.282 205.349C110.781 202.96 90.9008 197.843 65.8096 188.726C60.7392 186.885 57.5568 186.174 58.5856 180.354C59.0208 177.894 62.5376 161.674 63.9088 157.617C64.4208 156.107 66.8496 159.057 70.9104 159.217C76.6496 159.435 82.0224 147.456 75.7104 142.595C73.3888 140.808 67.9312 142.915 67.8448 142.185C67.6928 140.92 73.3776 123.06 73.8928 121.404C74.386 120.01 75.0697 118.69 75.9248 117.483C76.8844 116.142 78.3208 115.219 79.9392 114.904C81.8464 114.385 82.5136 115.374 99.7792 119.512C108.8 121.68 108.64 121.678 108.339 122.216C106.877 124.776 104.179 128.574 105.344 131.691C107.314 136.96 114.08 138.678 118.4 137.017C121.426 135.854 123.552 133.398 123.23 127.577C123.64 123.166 120.765 126.02 148.478 130.022C153.528 130.752 158.573 131.675 157.438 136.822C152.746 157.976 148.728 165.986 153.541 164.869C154.766 164.662 156.012 164.61 157.251 164.709C164.11 164.813 163.011 176.878 157.109 179.168C154.632 180.128 152.874 178.81 151.75 178.416C146.07 176.429 148.259 176.413 142.614 194.326C137.258 211.302 137.808 210.56 119.282 205.355V205.349ZM229.39 222.299C223.886 238.43 223.238 235.259 197.901 228.203C187.958 225.432 195.811 228.725 165.704 218.666C142.376 210.872 143.277 211.165 141.49 208.874C139.808 206.718 142.518 203.01 149.01 179.832C149.288 178.84 150.024 180.446 153.349 181.179C164.19 183.568 167.558 164.17 159.269 163.013C155.926 162.546 158.706 162.533 154.088 163.032C153.11 163.136 153.002 163.63 154.824 156.54C155.894 152.38 157.888 141.232 162.424 135.872C165.565 132.161 169.44 133.611 190.867 138.432C199.63 140.401 199.677 141.312 200.382 134.681C200.779 130.952 201.901 128.588 205.606 128.016C207.309 127.774 209.045 128.013 210.621 128.704C212.195 129.395 213.546 130.512 214.52 131.929C217.381 136.614 209.789 141.732 212.064 143.576C213.762 144.95 241.598 152.755 246.648 156.568C246.954 156.838 247.198 157.171 247.365 157.544C247.53 157.918 247.613 158.323 247.608 158.731C247.805 160.93 235.499 204.411 229.39 222.306V222.299Z" fill="#001434"/>
<path d="M203.232 185.355C222.493 181.149 215.491 157.097 198.379 157.568C195.771 157.397 193.173 158.011 190.918 159.331C188.664 160.651 186.856 162.616 185.728 164.974C184.602 167.331 184.206 169.971 184.594 172.555C184.981 175.139 186.134 177.547 187.904 179.47C190.222 182.166 189.856 180.798 184.37 181.816C172.005 184.109 163.811 196.677 163.552 205.269C163.534 205.851 164.157 206.446 164.763 205.71C166.189 203.976 169.619 188.408 183.994 184.654C186.04 184.117 188.155 183.896 190.269 184.002C191.458 183.955 191.269 184.701 193.258 188.824C193.63 189.598 193.566 189.288 189.955 196.366C185.795 204.526 183.701 206.648 184.381 207.794C185.234 209.49 186.203 211.125 187.285 212.685C188.536 214.328 188.821 215.23 189.867 214.71C196.096 211.614 196.446 211.803 196.373 210.55C196.075 205.49 195.573 191.374 195.573 191.338C195.266 190.203 195.398 190.36 199.768 187.528C199.926 187.386 200.131 187.306 200.344 187.306C200.557 187.306 200.762 187.386 200.92 187.528C201.72 188.208 202.598 188.808 203.394 189.498C208.354 193.774 211.835 201.706 211.008 210.853C210.634 213.797 210.083 216.715 209.355 219.594C209.074 220.907 210.248 221.694 210.725 221.194C212.362 219.464 213.749 212.624 213.851 210.24C214.701 190.342 200.816 185.883 203.232 185.355ZM187.102 173.195C185.182 165.355 192.326 158.457 201.171 160.206C211.072 162.165 215.163 172.554 210.003 178.795C203.67 186.461 189.52 183.093 187.102 173.198V173.195Z" fill="#001434"/>
<path d="M96.3759 107.096C99.0223 107.163 98.0623 95.8221 108.179 87.8509C111.256 85.367 115.014 83.8738 118.957 83.5677C119.597 83.4685 119.577 83.7901 120.835 86.5229C121.664 88.3213 121.819 88.4429 121.467 88.9341C121.405 89.0221 115.707 98.3373 114.838 99.7629C111.278 105.63 111.097 105.659 111.638 106.593C114.896 112.268 114.838 112.868 115.888 112.401C118.176 111.446 120.349 110.238 122.368 108.8C123.262 108.238 122.989 97.3549 123.302 93.5101C123.689 88.7453 123.539 88.8013 124.043 88.4413C127.801 85.7581 127.709 85.2541 128.577 85.7389C132.846 88.2469 136.111 92.161 137.811 96.8109C142.249 108.28 136.921 120.14 139.968 118.016C141.464 116.972 145.04 102.075 137.833 91.1677C135.968 88.2926 133.514 85.8461 130.633 83.9901C131.334 83.4141 134.192 83.4621 137.446 80.0829C145.917 71.2829 138.246 56.3869 124.326 58.5101C122.649 58.8037 121.047 59.4275 119.613 60.3454C118.178 61.2634 116.941 62.4571 115.972 63.8573C115.003 65.2574 114.322 66.836 113.968 68.5016C113.614 70.1672 113.594 71.8866 113.91 73.5597C115.005 78.6605 118.062 80.2221 118.459 81.1117C114.998 81.4818 111.663 82.621 108.699 84.4461C98.2735 90.9549 95.5535 103.755 95.7503 106.494C95.7967 106.947 95.9423 107.084 96.3759 107.096ZM116.136 72.8701C114.837 65.7565 120.296 60.1789 127.304 60.2301C129.99 60.1581 132.615 61.0378 134.715 62.7136C136.816 64.3893 138.256 66.7536 138.782 69.3885C139.048 70.8565 139.003 72.364 138.65 73.8134C138.297 75.263 137.645 76.6226 136.734 77.8045C135.824 78.9864 134.676 79.9643 133.365 80.6754C132.053 81.3864 130.607 81.8146 129.12 81.9325C126.215 82.3184 123.27 81.6021 120.867 79.9246C118.463 78.2472 116.776 75.7302 116.136 72.8701Z" fill="#001434"/>
<path d="M112.525 165.609C128.771 162.409 125.422 139.762 108.073 139.53C96.307 139.37 89.427 152.699 98.6894 161.541C99.7598 162.561 98.6494 162.293 98.4494 162.341C98.1883 162.414 97.9203 162.461 97.6494 162.48C86.9038 162.683 76.2462 174.888 76.4094 184.947C76.3984 185.093 76.4392 185.238 76.5245 185.358C76.6099 185.477 76.7344 185.563 76.8765 185.6C77.0184 185.637 77.1688 185.622 77.3013 185.56C77.4339 185.496 77.54 185.389 77.6014 185.256C79.1198 183.192 81.5614 166.147 99.8206 164.731C100.109 164.709 101.008 164.781 101.182 165.211C102.84 169.277 103.582 169.302 103.163 170.107C101.849 172.629 101.233 174.096 99.9118 176.96C99.4126 178.043 98.3214 179.704 97.5918 181.269C96.4462 183.72 94.8238 185.84 95.3518 186.72C96.5149 188.8 97.817 190.798 99.2494 192.702C100.117 193.59 99.9406 193.101 105.696 190.357C106.853 189.805 106.398 188.917 106.336 187.637C106.275 186.491 105.475 172.243 105.241 171.189C105.059 170.371 105.309 170.389 109.214 167.746C109.378 167.637 109.574 167.586 109.771 167.602C109.967 167.618 110.153 167.697 110.297 167.832C124.697 177.451 119.257 194.352 118.71 197.534C118.667 197.742 118.699 197.96 118.799 198.147C118.898 198.334 119.061 198.481 119.257 198.563C119.747 198.845 119.958 198.866 120.235 198.418C121.893 195.733 122.864 189.851 122.881 186.648C122.843 182.445 121.781 178.315 119.787 174.614C116.093 167.435 110.525 166.003 112.525 165.609ZM109.313 163.611C98.9598 163.651 93.3262 152.584 99.099 145.59C103.811 139.88 113.019 140.403 117.91 146.219C119.628 148.137 120.559 150.631 120.517 153.205C120.476 155.779 119.466 158.242 117.688 160.104C114.88 163.016 112.257 163.272 109.313 163.611Z" fill="#001434"/>
<path d="M210.123 27.7582C215.549 27.9182 217.803 33.1822 219.285 33.9342C219.781 33.3358 231.627 16.5854 232.134 15.9631C237.734 9.08308 239.275 6.26388 247.586 10.8879C263.115 19.5278 300.173 43.6654 309.904 53.139C314.848 57.9518 310.469 63.3678 302.797 75.8478C297.6 84.291 278.469 112.185 272.037 120.32C264.795 129.473 264.482 130.195 239.946 114.262C234.901 110.987 235.816 111.339 234.645 110.6C233.598 109.939 232.627 109.425 233.576 108.55C237.645 104.79 239.976 100.469 236.224 96.3342C230.846 90.4062 222.405 90.3662 219.712 97.7534C218.946 99.8558 218.734 99.9934 218.112 99.6734C217.674 99.451 199.574 87.2062 194.246 81.8398C190.635 78.2014 193.704 73.9886 195.686 70.5518C209.662 46.2606 210.981 48.6766 208.216 47.475C204.078 45.6782 199.762 44.435 200.248 38.1534C200.568 33.8718 205.44 27.6206 210.123 27.7582ZM244.581 57.107C235.734 56.9246 226.462 61.3262 219.648 71.7374C218.97 72.7742 217.955 74.427 218.816 75.3166C223.957 80.6318 253.206 100.577 258.379 101.432C259.416 101.603 259.691 100.985 261.981 97.9118C269.306 88.0974 269.853 74.283 262.539 65.5326C260.389 62.9614 266.304 66.7038 272.901 61.5326C284.403 52.5054 273.397 34.8014 258.598 37.9454C251.163 39.5262 247.31 45.7614 247.96 51.347C248.179 53.4125 248.848 55.4048 249.92 57.1838C250.43 58.275 248.48 56.9438 244.581 57.107Z" fill="#001434"/>
<path d="M211.349 107.133C211.381 107.025 211.435 106.926 211.507 106.841C211.579 106.755 211.669 106.686 211.77 106.637C211.87 106.587 211.979 106.559 212.091 106.554C212.203 106.549 212.315 106.568 212.419 106.608C219.238 109.749 216.19 112.12 220.861 105.109C224.782 99.2191 224.931 98.9918 225.411 98.4062C226.128 97.5262 226.44 97.7327 229.427 99.9311C232.501 102.192 233.075 102.545 231.966 103.67C230.328 105.333 231.922 103.629 222.79 113.043C222.13 113.725 222.386 113.438 227.118 117.497C227.986 118.243 228.056 119.147 226.845 119.461C223.005 120.456 213.531 122.011 213.494 122.021C213.192 122.006 212.904 121.886 212.68 121.681C212.456 121.477 212.31 121.201 212.269 120.901C211.469 116.358 211.16 111.742 211.349 107.133Z" fill="#001434"/>
<path d="M251.694 63.7456C250.957 59.2656 250.994 59.1264 253.733 60.7328C256.579 62.4 260.03 64.1504 258.33 64.712C252.802 66.544 254.515 64.1696 250.15 74.936C245.69 85.9392 246.731 85.4704 243.576 85.7344C241.664 85.8944 239.747 85.96 237.826 85.9312C236.882 85.9168 236.91 84.5808 235.466 78.9664C235.123 77.6384 235.656 77.6432 239.906 74.176C252.106 64.224 251.917 64.6768 251.694 63.7456Z" fill="#001434"/>
</svg>
