<svg width="24" height="24" viewBox="0 0 24 24" fill="none" xmlns="http://www.w3.org/2000/svg">
<path d="M8.06956 12.5429L16.4291 20.5079C16.5685 20.6409 16.7539 20.7151 16.9466 20.7151C17.1393 20.7151 17.3246 20.6409 17.4641 20.5079L17.4731 20.4989C17.5409 20.4345 17.5949 20.3569 17.6319 20.2709C17.6688 20.1849 17.6878 20.0923 17.6878 19.9987C17.6878 19.9051 17.6688 19.8125 17.6319 19.7265C17.5949 19.6405 17.5409 19.5629 17.4731 19.4984L9.60106 11.9984L17.4731 4.50145C17.5409 4.43699 17.5949 4.3594 17.6319 4.2734C17.6688 4.1874 17.6878 4.09479 17.6878 4.0012C17.6878 3.90761 17.6688 3.81499 17.6319 3.729C17.5949 3.643 17.5409 3.56541 17.4731 3.50095L17.4641 3.49194C17.3246 3.35898 17.1393 3.2848 16.9466 3.2848C16.7539 3.2848 16.5685 3.35898 16.4291 3.49194L8.06956 11.4569C7.99605 11.527 7.93752 11.6112 7.89753 11.7046C7.85753 11.7979 7.83691 11.8984 7.83691 11.9999C7.83691 12.1015 7.85753 12.202 7.89753 12.2953C7.93752 12.3887 7.99605 12.4729 8.06956 12.5429Z" fill="black"/>
</svg>
