<svg width="56" height="56" viewBox="0 0 56 56" fill="none" xmlns="http://www.w3.org/2000/svg">
<path d="M18.6663 9.33325C19.2379 9.33333 19.7895 9.54315 20.2165 9.92292C20.6436 10.3027 20.9165 10.826 20.9833 11.3936L20.9997 11.6666V44.3333C20.999 44.928 20.7713 45.5 20.363 45.9324C19.9548 46.3649 19.3968 46.6251 18.8031 46.66C18.2094 46.6948 17.6248 46.5017 17.1687 46.12C16.7127 45.7383 16.4196 45.1968 16.3493 44.6063L16.333 44.3333V11.6666C16.333 11.0477 16.5788 10.4543 17.0164 10.0167C17.454 9.57909 18.0475 9.33325 18.6663 9.33325ZM37.333 9.33325C37.9045 9.33333 38.4561 9.54315 38.8832 9.92292C39.3103 10.3027 39.5831 10.826 39.65 11.3936L39.6663 11.6666V44.3333C39.6657 44.928 39.438 45.5 39.0297 45.9324C38.6214 46.3649 38.0635 46.6251 37.4698 46.66C36.8761 46.6948 36.2915 46.5017 35.8354 46.12C35.3793 45.7383 35.0863 45.1968 35.016 44.6063L34.9997 44.3333V11.6666C34.9997 11.0477 35.2455 10.4543 35.6831 10.0167C36.1207 9.57909 36.7142 9.33325 37.333 9.33325Z" fill="#001434"/>
</svg>
