<svg width="18" height="18" viewBox="0 0 18 18" fill="none" xmlns="http://www.w3.org/2000/svg">
<path fill-rule="evenodd" clip-rule="evenodd" d="M9 0.25C9.19891 0.25 9.38968 0.329018 9.53033 0.46967C9.67098 0.610322 9.75 0.801088 9.75 1V8.25H17C17.1989 8.25 17.3897 8.32902 17.5303 8.46967C17.671 8.61032 17.75 8.80109 17.75 9C17.75 9.19891 17.671 9.38968 17.5303 9.53033C17.3897 9.67098 17.1989 9.75 17 9.75H9.75V17C9.75 17.1989 9.67098 17.3897 9.53033 17.5303C9.38968 17.671 9.19891 17.75 9 17.75C8.80109 17.75 8.61032 17.671 8.46967 17.5303C8.32902 17.3897 8.25 17.1989 8.25 17V9.75H1C0.801088 9.75 0.610322 9.67098 0.46967 9.53033C0.329018 9.38968 0.25 9.19891 0.25 9C0.25 8.80109 0.329018 8.61032 0.46967 8.46967C0.610322 8.32902 0.801088 8.25 1 8.25H8.25V1C8.25 0.801088 8.32902 0.610322 8.46967 0.46967C8.61032 0.329018 8.80109 0.25 9 0.25Z" fill="white"/>
</svg>
